<svg xmlns="http://www.w3.org/2000/svg" viewBox="0 0 60 60"><defs><style>.a{fill:#fff;}.b,.d{fill:#c9d3d0;}.c,.d{stroke:none;}</style></defs><g transform="translate(-5148 -496)"><g class="a" transform="translate(5148 496)"><path class="c" d="M 30 59.5 C 26.01730918884277 59.5 22.15401077270508 58.72008895874023 18.51741981506348 57.18194961547852 C 15.00463962554932 55.69617080688477 11.84974002838135 53.56903839111328 9.140350341796875 50.85964965820312 C 6.430960178375244 48.15026092529297 4.303830146789551 44.995361328125 2.818049907684326 41.48257827758789 C 1.27990996837616 37.84598922729492 0.5 33.98268890380859 0.5 30 C 0.5 26.01730918884277 1.27990996837616 22.15401077270508 2.818049907684326 18.51741981506348 C 4.303830146789551 15.00463962554932 6.430960178375244 11.84974002838135 9.140350341796875 9.140350341796875 C 11.84974002838135 6.430960178375244 15.00463962554932 4.303830146789551 18.51741981506348 2.818049907684326 C 22.15401077270508 1.27990996837616 26.01730918884277 0.5 30 0.5 C 33.39962005615234 0.5 36.72832870483398 1.073330044746399 39.89365005493164 2.204070091247559 C 42.96059036254883 3.299649953842163 45.81132125854492 4.894189834594727 48.36666107177734 6.943389892578125 C 50.90396881103516 8.978130340576172 53.08229827880859 11.40622043609619 54.84112930297852 14.16020965576172 C 56.63307952880859 16.96603965759277 57.94313812255859 20.03956031799316 58.73490905761719 23.29537963867188 C 59.22832107543945 25.31671905517578 59.5 27.69765090942383 59.5 30 C 59.5 33.98268890380859 58.72008895874023 37.84598922729492 57.18194961547852 41.48257827758789 C 55.69617080688477 44.995361328125 53.56903839111328 48.15026092529297 50.85964965820312 50.85964965820312 C 48.15026092529297 53.56903839111328 44.995361328125 55.69617080688477 41.48257827758789 57.18194961547852 C 37.84598922729492 58.72008895874023 33.98268890380859 59.5 30 59.5 Z"/><path class="d" d="M 30 1 C 26.08457946777344 1 22.28681945800781 1.766620635986328 18.71220016479492 3.278549194335938 C 15.2590217590332 4.739128112792969 12.15753936767578 6.830268859863281 9.493900299072266 9.493900299072266 C 6.830268859863281 12.15753936767578 4.739128112792969 15.2590217590332 3.278549194335938 18.71220016479492 C 1.766620635986328 22.28681945800781 1 26.08457946777344 1 30 C 1 33.91542053222656 1.766620635986328 37.71318054199219 3.278549194335938 41.28779983520508 C 4.739128112792969 44.74098205566406 6.830268859863281 47.84246063232422 9.493900299072266 50.50609970092773 C 12.15753936767578 53.16973114013672 15.2590217590332 55.26087188720703 18.71220016479492 56.72145080566406 C 22.28681945800781 58.23337936401367 26.08457946777344 59 30 59 C 33.91542053222656 59 37.71318054199219 58.23337936401367 41.28779983520508 56.72145080566406 C 44.74098205566406 55.26087188720703 47.84246063232422 53.16973114013672 50.50609970092773 50.50609970092773 C 53.16973114013672 47.84246063232422 55.26087188720703 44.74098205566406 56.72145080566406 41.28779983520508 C 58.23337936401367 37.71318054199219 59 33.91542053222656 59 30 C 59 27.73643112182617 58.73339080810547 25.39760971069336 58.24906921386719 23.41352844238281 C 57.47034072875977 20.21134948730469 56.18196868896484 17.18862915039062 54.41973876953125 14.42932891845703 C 52.6903190612793 11.72140121459961 50.54853057861328 9.333999633789062 48.05384826660156 7.333461761474609 C 45.5419921875 5.319118499755859 42.73991012573242 3.75177001953125 39.72544860839844 2.674919128417969 C 36.61425018310547 1.563529968261719 33.34214019775391 1 30 1 M 30 0 C 44.11627960205078 0 55.95536804199219 9.749778747558594 59.22074890136719 23.17723083496094 C 59.70576858520508 25.16418838500977 60 27.5477294921875 60 30 C 60 46.56853866577148 46.56853866577148 60 30 60 C 13.43146133422852 60 0 46.56853866577148 0 30 C 0 13.43146133422852 13.43146133422852 0 30 0 Z"/></g><ellipse class="b" cx="8.03" cy="8.03" rx="8.03" ry="8.03" transform="translate(5170.092 510.063)"/><path class="b" d="M16.06,0C7.227,0,0,3.613,0,8.03v4.015H32.12V8.03C32.12,3.613,24.893,0,16.06,0Z" transform="translate(5162.063 530.138)"/></g></svg>