<svg xmlns="http://www.w3.org/2000/svg" width="64" height="20" viewBox="0 0 64 20">
  <g id="グループ_13891" data-name="グループ 13891" transform="translate(-296 -208)">
    <path id="パス_3549" data-name="パス 3549" d="M-4,0H28V20H4Z" transform="translate(300 208)" fill="#346181"/>
    <path id="パス_3550" data-name="パス 3550" d="M28,0H-4V20H20Z" transform="translate(332 208)" fill="#346181"/>
    <text id="ARR" transform="translate(303 222)" fill="#fff" font-size="10" font-family="Helvetica-Bold, Helvetica" font-weight="700"><tspan x="0" y="0">ARR</tspan></text>
    <text id="DEP" transform="translate(332 222)" fill="#fff" font-size="10" font-family="Helvetica-Bold, Helvetica" font-weight="700"><tspan x="0" y="0">DEP</tspan></text>
    <path id="パス_3551" data-name="パス 3551" d="M1,2.367l1.365,2.7L1,7.449,2.365,9.8,1,12.447l1.365,2.461L1,17.518l1.365,2.576L1,22.367H-.453L1,20.094-.453,17.518,1,14.908-.453,12.447,1,9.8-.453,7.449,1,5.063l-1.453-2.7Z" transform="translate(327 205.633)" fill="#f6f6f6"/>
  </g>
</svg>
