<svg xmlns="http://www.w3.org/2000/svg" viewBox="0 0 38 40"><style>.cls-1{fill:#fff;}</style><g id="レイヤー_2" data-name="レイヤー 2"><g id="レイヤー_1-2" data-name="レイヤー 1"><g id="グループ化_6504" data-name="グループ化 6504"><path class="cls-1" d="M37,32H1a1,1,0,0,1-.74-1.67s4.48-5,4.48-10.58v-7.5C4.74,5.61,11.27,0,19,0S33.26,5.61,33.26,12.25v7.5c0,5.53,4.44,10.53,4.48,10.58A1,1,0,0,1,37,32ZM3,30H35c-1.48-2.1-3.69-6-3.69-10.25v-7.5C31.26,6.79,25.53,2,19,2S6.74,6.79,6.74,12.25v7.5C6.74,24,4.53,27.9,3,30Z"/><path class="cls-1" d="M19.5,40c-4.77,0-8.5-3.37-8.5-7.67V31a1,1,0,0,1,1-1H27a1,1,0,0,1,1,1v1.33C28,36.63,24.27,40,19.5,40ZM13,32v.33C13,35.51,15.85,38,19.5,38S26,35.51,26,32.33V32Z"/></g></g></g></svg>
