<svg xmlns="http://www.w3.org/2000/svg" xmlns:xlink="http://www.w3.org/1999/xlink" width="20" height="20" viewBox="0 0 20 20">
  <defs>
    <clipPath id="clip-Icon_Clip">
      <rect width="20" height="20"/>
    </clipPath>
  </defs>
  <g id="Icon_Clip" clip-path="url(#clip-Icon_Clip)">
    <g id="グループ_10556" data-name="グループ 10556" transform="translate(-9.253 -9.251)">
      <g id="グループ_9923" data-name="グループ 9923" transform="translate(10.253 10.251)">
        <path id="パス_2007" data-name="パス 2007" d="M1.373,9.186,9.461,1.85a5.762,5.762,0,0,1,7.473,0,4.544,4.544,0,0,1,0,6.777L7.263,17.4a4.214,4.214,0,0,1-5.626,0,3.336,3.336,0,0,1,0-5.1l9.67-8.771a2.733,2.733,0,0,1,3.692,0,2.167,2.167,0,0,1,0,3.349L6.3,14.767" transform="translate(-0.45 -0.475)" fill="none" stroke="#707070" stroke-linecap="round" stroke-linejoin="round" stroke-miterlimit="10" stroke-width="1.5"/>
      </g>
    </g>
  </g>
</svg>
