<svg id="歯車のフリーアイコン" xmlns="http://www.w3.org/2000/svg" width="24" height="24" viewBox="0 0 24 24">
  <path id="パス_2807" data-name="パス 2807" d="M23.324,10.086l-2.594-.612a9.047,9.047,0,0,0-.768-1.862l1.4-2.264a.877.877,0,0,0-.126-1.082l-1.5-1.5a.877.877,0,0,0-1.082-.126l-2.264,1.4a9.046,9.046,0,0,0-1.862-.768l-.612-2.6A.879.879,0,0,0,13.061,0H10.94a.879.879,0,0,0-.854.676l-.612,2.6a9.016,9.016,0,0,0-1.862.768l-2.264-1.4a.879.879,0,0,0-1.082.127l-1.5,1.5a.879.879,0,0,0-.126,1.082l1.4,2.265a9.027,9.027,0,0,0-.767,1.862l-2.6.612A.879.879,0,0,0,0,10.94v2.12a.878.878,0,0,0,.676.854l2.6.612a9.022,9.022,0,0,0,.767,1.861l-1.4,2.265a.88.88,0,0,0,.127,1.083l1.5,1.5a.878.878,0,0,0,1.082.126l2.265-1.4a9.025,9.025,0,0,0,1.862.767l.612,2.6A.878.878,0,0,0,10.94,24h2.12a.878.878,0,0,0,.854-.676l.612-2.6a9.007,9.007,0,0,0,1.861-.767l2.265,1.4a.878.878,0,0,0,1.082-.126l1.5-1.5a.878.878,0,0,0,.126-1.082l-1.4-2.264a9,9,0,0,0,.768-1.862l2.6-.612A.877.877,0,0,0,24,13.06V10.94A.878.878,0,0,0,23.324,10.086ZM12,14.208A2.208,2.208,0,1,1,14.208,12,2.208,2.208,0,0,1,12,14.208Z" />
</svg>
