<svg xmlns="http://www.w3.org/2000/svg" viewBox="0 0 11 12"><g id="レイヤー_2" data-name="レイヤー 2"><g id="レイヤー_1-2" data-name="レイヤー 1"><g id="グループ化_6516" data-name="グループ化 6516"><g id="グループ化_6171" data-name="グループ化 6171"><path id="hourglass" class="cls-1" d="M.46,1H1A7.48,7.48,0,0,0,2,4.22,5,5,0,0,0,3.68,6,5,5,0,0,0,2,7.78,7.48,7.48,0,0,0,1,11H.46a.49.49,0,0,0,0,1H10.54a.49.49,0,0,0,0-1H10A7.48,7.48,0,0,0,9,7.78,5,5,0,0,0,7.32,6,5,5,0,0,0,9,4.22,7.48,7.48,0,0,0,10,1h.55A.47.47,0,0,0,11,.49h0A.47.47,0,0,0,10.54,0H.46A.47.47,0,0,0,0,.48H0A.47.47,0,0,0,.46,1ZM9.25,1c-.18,2.26-1.37,4.17-3,4.66h0l0,0h0l0,0h0l0,0h0v0h0a0,0,0,0,0,0,0h0a.21.21,0,0,0,0,.06h0v0h0s0,0,0,0,0,0,0,0h0v0h0v.16h0a0,0,0,0,0,0,0s0,0,0,0a0,0,0,0,0,0,0v0h0s0,0,0,0h0s0,0,0,0h0v0h0l0,0h0l0,0h0s0,0,0,0h0c1.6.48,2.79,2.39,3,4.65H1.77c.18-2.26,1.37-4.17,3-4.65h.14v0h0v0s0,0,0,0v0h0v0s0,0,0,0H5s0,0,0,0H5v0H5V6S5,6,5,6v0H5v0s0,0,0,0a0,0,0,0,0,0,0H5s0,0,0,0h0v0h0v0H4.77s0,0,0,0h0c-1.61-.49-2.8-2.4-3-4.66Z"/><g id="sant"><path id="パス_1443" data-name="パス 1443" class="cls-1" d="M8.07,2.73a.18.18,0,0,0-.15-.07H3.08a.18.18,0,0,0-.15.07.23.23,0,0,0,0,.16A1,1,0,0,0,3,3.13,3.37,3.37,0,0,0,4.87,5L5,5a1.7,1.7,0,0,0,.55.08A1.68,1.68,0,0,0,6,5l.1,0A3.34,3.34,0,0,0,8,3.13H8A.88.88,0,0,0,8.1,2.9.25.25,0,0,0,8.07,2.73Z"/><path id="パス_1444" data-name="パス 1444" class="cls-1" d="M5.91,6.76a.41.41,0,0,1-.41.41.41.41,0,1,1,0-.82.41.41,0,0,1,.41.41Z"/><path id="パス_1445" data-name="パス 1445" class="cls-1" d="M5.91,8.1a.4.4,0,0,1-.41.4.41.41,0,0,1-.41-.41.42.42,0,0,1,.41-.41.41.41,0,0,1,.41.41Z"/><path id="sant-2" data-name="sant" class="cls-1" d="M3.58,10.3a.14.14,0,0,0,.1,0H7.32a.12.12,0,0,0,.12-.15C7.2,9.17,5.91,9,5.49,9S3.8,9.17,3.56,10.2A.12.12,0,0,0,3.58,10.3Z"/></g></g></g></g></g></svg>
