<svg xmlns="http://www.w3.org/2000/svg" viewBox="0 0 13.267 12.717"><defs><style>.a,.b{fill:none;stroke:#fff;stroke-linecap:round;stroke-miterlimit:10;stroke-width:0.5px;}.a{stroke-linejoin:round;}</style></defs><g transform="translate(-277.659 -29.208)"><path class="a" d="M8.83,1.373h-7L1.464.32A.439.439,0,0,0,1.052,0H0L.412,2.379a.446.446,0,0,0,.458.366H4.164L3.248,6.863H4.621L6.909,2.745h3.34a.332.332,0,0,0,.229-.549L10.2,1.922A2.018,2.018,0,0,0,8.83,1.373Z" transform="translate(281.432 30.357) rotate(30)"/><path class="b" d="M.915,4.118,0,0H1.1A.48.48,0,0,1,1.51.229L3.66,4.118Z" transform="translate(285.578 29.581) rotate(30)"/></g></svg>