<svg xmlns="http://www.w3.org/2000/svg" viewBox="0 0 40 32"><defs><style>.a{fill:#222;}.b,.c{fill:none;}.c{stroke:#222;}.d{stroke:none;}</style></defs><g transform="translate(-565 -360)"><g transform="translate(-5543 -3264)"><g transform="translate(5226 3520)"><path class="a" d="M9,12.956,3,6.949,3.947,6,9,10.743,14.053,6,15,6.949Z" transform="translate(893 120.522)"/><rect class="b" width="12" height="12" transform="translate(896 124)"/></g><g transform="translate(27 37)"><g class="c" transform="translate(6081 3587)"><rect class="d" width="40" height="19" rx="1"/><rect class="b" x="0.5" y="0.5" width="39" height="18" rx="0.5"/></g><rect class="a" width="23" height="3" transform="translate(6089 3600)"/><rect class="a" width="3" height="3" transform="translate(6089 3595)"/><rect class="a" width="3" height="3" transform="translate(6094 3595)"/><rect class="a" width="3" height="3" transform="translate(6099 3595)"/><rect class="a" width="3" height="3" transform="translate(6104 3595)"/><rect class="a" width="3" height="3" transform="translate(6109 3595)"/><rect class="a" width="3" height="3" transform="translate(6114 3600)"/><rect class="a" width="3" height="3" transform="translate(6114 3595)"/><rect class="a" width="3" height="3" transform="translate(6084 3595)"/><rect class="a" width="3" height="3" transform="translate(6084 3600)"/><rect class="a" width="3" height="3" transform="translate(6089 3590)"/><rect class="a" width="3" height="3" transform="translate(6094 3590)"/><rect class="a" width="3" height="3" transform="translate(6099 3590)"/><rect class="a" width="3" height="3" transform="translate(6104 3590)"/><rect class="a" width="3" height="3" transform="translate(6109 3590)"/><rect class="a" width="3" height="3" transform="translate(6114 3590)"/><rect class="a" width="3" height="3" transform="translate(6084 3590)"/></g></g></g></svg>