<svg xmlns="http://www.w3.org/2000/svg" viewBox="0 0 13.532 12.77"><defs><style>.a,.b{fill:none;stroke:#fff;stroke-linecap:round;stroke-miterlimit:10;stroke-width:0.5px;}.a{stroke-linejoin:round;}</style></defs><g transform="translate(-279.218 -46.434)"><path class="a" d="M9.016,1.4H1.869L1.495.327A.449.449,0,0,0,1.074,0H0L.42,2.429A.455.455,0,0,0,.888,2.8H4.251l-.934,4.2h1.4L7.054,2.8h3.41a.339.339,0,0,0,.234-.561l-.28-.28A2.06,2.06,0,0,0,9.016,1.4Z" transform="translate(279.559 52.793) rotate(-30)"/><path class="b" d="M.934,4.2,0,0H1.121a.491.491,0,0,1,.42.234L3.737,4.2Z" transform="translate(280.99 48.731) rotate(-30)"/></g></svg>