<svg xmlns="http://www.w3.org/2000/svg" viewBox="0 0 36 36"><g transform="translate(-181 -187)"><g transform="translate(181 187)" fill="#f6f6f6" stroke="#eee" stroke-width="2"><rect width="36" height="36" rx="18" stroke="none"/><rect x="1" y="1" width="34" height="34" rx="17" fill="none"/></g><g transform="translate(188 196)"><path d="M18.869,13.98H16.081V12.566h2.788a2.545,2.545,0,0,0,0-5.091A2.352,2.352,0,0,0,18.1,7.6l-1.131.323.2-1.172a1.967,1.967,0,0,0,.04-.485,2.535,2.535,0,0,0-2.545-2.545,2.466,2.466,0,0,0-1.657.606l-.768.687-.364-.97A3.945,3.945,0,0,0,4.2,5.333a4.232,4.232,0,0,0,.2,1.212l.283.848L3.8,7.475A2.55,2.55,0,0,0,4,12.566H6.788V13.98H3.96A3.955,3.955,0,0,1,2.869,6.222a6.028,6.028,0,0,1-.081-.848A5.359,5.359,0,0,1,12.848,2.788a4.028,4.028,0,0,1,1.818-.444,3.977,3.977,0,0,1,3.96,3.717h.242a3.96,3.96,0,0,1,0,7.919Z" transform="translate(0 0)" fill="#222"/><path d="M10.657,16.752a2.553,2.553,0,0,0-1.535-.364L9,14.974a3.813,3.813,0,0,1,2.384.566Z" transform="translate(-5.364 -8.914)" fill="#222"/><path d="M29.6,10.333a3.172,3.172,0,0,0-.2-.889L30.733,9a6.576,6.576,0,0,1,.283,1.212Z" transform="translate(-17.521 -5.364)" fill="#222"/><path d="M42.912,18.276,41.7,17.548a2.651,2.651,0,0,0,.323-.848l1.374.283A3.871,3.871,0,0,1,42.912,18.276Z" transform="translate(-24.852 -9.953)" fill="#222"/><path d="M18.714,30.981a.761.761,0,0,1-.323-.081.709.709,0,0,1-.323-.808l1.131-3.8-1.091.162a.67.67,0,0,1-.646-.242.706.706,0,0,1-.121-.687l2.222-5.576a.635.635,0,0,1,.444-.4l3.838-1.091a.632.632,0,0,1,.727.242.749.749,0,0,1,.081.768L22.876,22.9l2.02-.242a.679.679,0,0,1,.687.364.749.749,0,0,1-.081.768l-6.263,6.99A.768.768,0,0,1,18.714,30.981Zm1.495-6.263a.652.652,0,0,1,.525.242.758.758,0,0,1,.162.646l-.566,1.859,2.909-3.273-1.495.162a.664.664,0,0,1-.646-.283.674.674,0,0,1-.04-.727l1.616-3.152-1.98.566L19.078,24.88l1.01-.162Z" transform="translate(-10.31 -10.981)" fill="#222"/></g></g></svg>