<svg xmlns="http://www.w3.org/2000/svg" viewBox="0 0 36 36"><g transform="translate(-181 -279)"><g transform="translate(181 279)" fill="#f6f6f6"><path d="M 18 35 C 13.45913982391357 35 9.190059661865234 33.231689453125 5.979189872741699 30.02082061767578 C 2.768310070037842 26.80994033813477 1 22.54087066650391 1 18 C 1 13.45913982391357 2.768310070037842 9.190059661865234 5.979189872741699 5.979189872741699 C 9.190059661865234 2.768310070037842 13.45913982391357 1 18 1 C 22.54087066650391 1 26.80994033813477 2.768310070037842 30.02082061767578 5.979189872741699 C 33.231689453125 9.190059661865234 35 13.45913982391357 35 18 C 35 22.54087066650391 33.231689453125 26.80994033813477 30.02082061767578 30.02082061767578 C 26.80994033813477 33.231689453125 22.54087066650391 35 18 35 Z" stroke="none"/><path d="M 18 2 C 13.72624969482422 2 9.70829963684082 3.664291381835938 6.686290740966797 6.686290740966797 C 3.664291381835938 9.70829963684082 2 13.72624969482422 2 18 C 2 22.27375984191895 3.664291381835938 26.29170989990234 6.686290740966797 29.3137092590332 C 9.708290100097656 32.33570861816406 13.72624969482422 34 18 34 C 22.27375984191895 34 26.29170989990234 32.33570861816406 29.3137092590332 29.3137092590332 C 32.33570861816406 26.29170989990234 34 22.27375984191895 34 18 C 34 13.72624969482422 32.33570861816406 9.708290100097656 29.3137092590332 6.686290740966797 C 26.29170989990234 3.664291381835938 22.27375984191895 2 18 2 M 18 0 C 27.94112968444824 0 36 8.058879852294922 36 18 C 36 27.94112968444824 27.94112968444824 36 18 36 C 8.058879852294922 36 0 27.94112968444824 0 18 C 0 8.058879852294922 8.058879852294922 0 18 0 Z" stroke="none" fill="#eee"/></g><path d="M-8.946-4.716A1.377,1.377,0,0,0-9.455-5.1a1.692,1.692,0,0,0-.7-.135,1.755,1.755,0,0,0-.734.153,1.755,1.755,0,0,0-.585.428,1.992,1.992,0,0,0-.387.652A2.348,2.348,0,0,0-12-3.186a2.337,2.337,0,0,0,.139.824,2.047,2.047,0,0,0,.383.648,1.734,1.734,0,0,0,.571.428,1.653,1.653,0,0,0,.707.153,1.583,1.583,0,0,0,.765-.18,1.523,1.523,0,0,0,.549-.5l1.17.873a2.436,2.436,0,0,1-1.026.837,3.175,3.175,0,0,1-1.278.27,3.926,3.926,0,0,1-1.377-.234,3.152,3.152,0,0,1-1.089-.671A3.04,3.04,0,0,1-13.2-1.8a3.6,3.6,0,0,1-.257-1.386A3.6,3.6,0,0,1-13.2-4.572a3.04,3.04,0,0,1,.715-1.058,3.152,3.152,0,0,1,1.089-.67,3.926,3.926,0,0,1,1.377-.234,3.372,3.372,0,0,1,.563.049,3.039,3.039,0,0,1,.576.157,2.567,2.567,0,0,1,.545.288,2.166,2.166,0,0,1,.468.441Zm1.6-1.656h1.4V-1.3h2.6V0h-4Zm3.987,3.186A3.6,3.6,0,0,1-3.1-4.572,3.04,3.04,0,0,1-2.385-5.63,3.152,3.152,0,0,1-1.3-6.3,3.926,3.926,0,0,1,.081-6.534,3.926,3.926,0,0,1,1.458-6.3a3.152,3.152,0,0,1,1.089.67,3.04,3.04,0,0,1,.715,1.058,3.6,3.6,0,0,1,.256,1.386A3.6,3.6,0,0,1,3.262-1.8,3.04,3.04,0,0,1,2.547-.743a3.152,3.152,0,0,1-1.089.671A3.926,3.926,0,0,1,.081.162,3.926,3.926,0,0,1-1.3-.072,3.152,3.152,0,0,1-2.385-.743,3.04,3.04,0,0,1-3.1-1.8,3.6,3.6,0,0,1-3.357-3.186Zm1.458,0a2.337,2.337,0,0,0,.14.824,1.886,1.886,0,0,0,.4.648,1.828,1.828,0,0,0,.625.428,2.085,2.085,0,0,0,.814.153A2.085,2.085,0,0,0,.9-1.287a1.828,1.828,0,0,0,.625-.428,1.886,1.886,0,0,0,.4-.648,2.337,2.337,0,0,0,.139-.824,2.348,2.348,0,0,0-.139-.819,1.878,1.878,0,0,0-.4-.652A1.828,1.828,0,0,0,.9-5.085a2.085,2.085,0,0,0-.815-.153,2.085,2.085,0,0,0-.814.153,1.828,1.828,0,0,0-.625.428,1.878,1.878,0,0,0-.4.652A2.348,2.348,0,0,0-1.9-3.186ZM7.173-4.815a1,1,0,0,0-.463-.319,1.661,1.661,0,0,0-.554-.1,1.45,1.45,0,0,0-.315.036,1.207,1.207,0,0,0-.306.112.667.667,0,0,0-.234.2.513.513,0,0,0-.09.306.507.507,0,0,0,.216.441,2.045,2.045,0,0,0,.545.261q.328.108.707.216a2.911,2.911,0,0,1,.706.306,1.673,1.673,0,0,1,.544.531,1.618,1.618,0,0,1,.216.891,2.048,2.048,0,0,1-.2.927,1.881,1.881,0,0,1-.536.657,2.279,2.279,0,0,1-.783.387,3.44,3.44,0,0,1-.941.126A3.412,3.412,0,0,1,4.536-.027a2.887,2.887,0,0,1-.99-.612l1-1.1a1.458,1.458,0,0,0,.544.446,1.554,1.554,0,0,0,.68.157,1.537,1.537,0,0,0,.347-.04A1.129,1.129,0,0,0,6.431-1.3.679.679,0,0,0,6.655-1.5a.516.516,0,0,0,.086-.3.539.539,0,0,0-.22-.454,2.032,2.032,0,0,0-.554-.284q-.333-.117-.72-.234a3.233,3.233,0,0,1-.72-.315,1.735,1.735,0,0,1-.553-.522,1.494,1.494,0,0,1-.22-.855,1.914,1.914,0,0,1,.2-.9,1.953,1.953,0,0,1,.54-.648A2.348,2.348,0,0,1,5.274-6.4a3.187,3.187,0,0,1,.909-.13,3.574,3.574,0,0,1,1.044.153,2.408,2.408,0,0,1,.909.513Zm1.62-1.557h4.329v1.3H10.2v1.188H12.96v1.3H10.2v1.3h3.087V0H8.793Z" transform="translate(199 305.95)" fill="#222"/><g transform="translate(187 285.018)"><path d="M0,12.177H1.993L7.647,0H6.813Z" fill="#222"/><path d="M373.329,12.085h-1.993L366,0h.83Z" transform="translate(-349.119)" fill="#222"/><path d="M85.505,0H82.12L77.3,12.177h7.066L85.5.138Z" transform="translate(-73.735)" fill="#222"/><path d="M283.113,0H279.7l.355,12.177h7.186Z" transform="translate(-266.799)" fill="#222"/><rect width="4.935" height="1.799" transform="translate(9.64 8.072)" fill="#222"/><rect width="4.013" height="1.245" transform="translate(10.147 4.013)" fill="#222"/><rect width="4.013" height="0.738" transform="translate(10.147 1.476)" fill="#222"/></g></g></svg>