<svg xmlns="http://www.w3.org/2000/svg" viewBox="0 0 24 17.005"><defs><style>.a{fill:none;}.b,.d{fill:#222;}.c,.d{stroke:none;}</style></defs><g transform="translate(-4802 -3684)"><g class="a" transform="translate(4802.5 3684.001)"><path class="c" d="M7.137.1A1.151,1.151,0,0,1,7.67,0H19.229A4.047,4.047,0,0,1,23.5,3.778v9.444A4.047,4.047,0,0,1,19.229,17H7.67a1.017,1.017,0,0,1-.514-.094,2.053,2.053,0,0,1-.507-.406L.011,9.5A1.735,1.735,0,0,1-.5,8.5a1.735,1.735,0,0,1,.511-1L6.649.5A1.85,1.85,0,0,1,7.137.1Z"/><path class="d" d="M 7.767857551574707 1.499999046325684 L 7.737350463867188 1.532168388366699 L 1.129558563232422 8.499999046325684 L 7.737350463867188 15.46782875061035 L 7.743610382080078 15.47303867340088 L 7.762371063232422 15.49472141265869 C 7.764019012451172 15.49645042419434 7.765713691711426 15.49820804595947 7.767458915710449 15.49999904632568 L 19.22920989990234 15.49999904632568 C 20.75703048706055 15.49999904632568 22 14.47818851470947 22 13.22221851348877 L 22 3.777778625488281 C 22 2.521808624267578 20.75703048706055 1.499999046325684 19.22920989990234 1.499999046325684 L 7.767857551574707 1.499999046325684 M 7.619122505187988 -0.00148773193359375 C 7.651429176330566 -0.00148773193359375 7.670209884643555 -1.9073486328125e-06 7.670209884643555 -1.9073486328125e-06 L 19.22920989990234 -1.9073486328125e-06 C 21.58790016174316 -1.9073486328125e-06 23.5 1.69136905670166 23.5 3.777778625488281 L 23.5 13.22221851348877 C 23.5 15.30862903594971 21.58790016174316 16.99999809265137 19.22920989990234 16.99999809265137 L 7.670209884643555 16.99999809265137 C 7.670209884643555 16.99999809265137 7.641475677490234 17.00347137451172 7.593719482421875 17.00347137451172 C 7.498198509216309 17.00347137451172 7.32654857635498 16.98958396911621 7.156330108642578 16.90624809265137 C 6.901010513305664 16.78124809265137 6.64893913269043 16.49999809265137 6.64893913269043 16.49999809265137 L 0.01063919067382812 9.499998092651367 C 0.01063919067382812 9.499998092651367 -0.5 8.999999046325684 -0.5 8.499999046325684 C -0.5 7.999999046325684 0.01063919067382812 7.499999046325684 0.01063919067382812 7.499999046325684 L 6.64893913269043 0.4999980926513672 C 6.64893913269043 0.4999980926513672 6.881809234619141 0.2280292510986328 7.137129783630371 0.1030292510986328 C 7.326033592224121 0.01054573059082031 7.52723503112793 -0.00148773193359375 7.619122505187988 -0.00148773193359375 Z"/></g><path class="b" d="M4,4.727.727,8,0,7.272,3.273,4,0,.727.727,0,4,3.273,7.272,0,8,.727,4.727,4,8,7.272,7.272,8Z" transform="translate(4813 3689)"/></g></svg>