<svg xmlns="http://www.w3.org/2000/svg" xmlns:xlink="http://www.w3.org/1999/xlink" width="36" height="36" viewBox="0 0 36 36">
  <g id="icon_issue_LVP_LVPD_APO_Issue">
    <g id="長方形_2749" data-name="長方形 2749" fill="#f6f6f6" stroke="#eee" stroke-width="2">
      <rect width="36" height="36" rx="18" stroke="none"/>
      <rect x="1" y="1" width="34" height="34" rx="17" fill="none"/>
    </g>
    <path id="パス_3460" data-name="パス 3460" d="M-21.112-4.672V-12.6h2.389v6.062h2.732v1.869Zm10.647,0h-2.682L-15.708-12.6h2.572l1.211,4.884a5.459,5.459,0,0,1,.16.885h.055a6.1,6.1,0,0,1,.171-.918L-10.36-12.6h2.489ZM-.548-9.987A2.579,2.579,0,0,1-.96-8.544a2.685,2.685,0,0,1-1.175.976,4.267,4.267,0,0,1-1.775.346h-.73v2.55H-7.031V-12.6h3.252a3.851,3.851,0,0,1,2.453.636A2.41,2.41,0,0,1-.548-9.987ZM-3.076-9.9a.929.929,0,0,0-.282-.736,1.219,1.219,0,0,0-.83-.249h-.454v1.958H-4.1Q-3.076-8.931-3.076-9.9ZM1.2-4.672H-.856L2.536-12.6h2.07ZM-22.68,5.4V-2.535h2.389V3.527h2.732V5.4Zm10.647,0h-2.682l-2.561-7.931H-14.7l1.211,4.884a5.46,5.46,0,0,1,.16.885h.055a6.1,6.1,0,0,1,.171-.918l1.178-4.851h2.489ZM-2.116.081a2.579,2.579,0,0,1-.412,1.444A2.685,2.685,0,0,1-3.7,2.5a4.267,4.267,0,0,1-1.775.346h-.73V5.4H-8.6V-2.535h3.252A3.851,3.851,0,0,1-2.893-1.9,2.41,2.41,0,0,1-2.116.081ZM-4.644.164a.929.929,0,0,0-.282-.736,1.219,1.219,0,0,0-.83-.249h-.454V1.138h.536Q-4.644,1.138-4.644.164ZM6.307,1.331A4.376,4.376,0,0,1,5.8,3.463a3.488,3.488,0,0,1-1.446,1.43,4.524,4.524,0,0,1-2.168.5H-1.171V-2.535H2.115Q6.307-2.535,6.307,1.331Zm-2.539.022A2.283,2.283,0,0,0,3.534.308a1.7,1.7,0,0,0-.672-.719A2.008,2.008,0,0,0,1.833-.665H1.219V3.527h.669a1.722,1.722,0,0,0,1.369-.589A2.333,2.333,0,0,0,3.769,1.353Z" transform="translate(26.681 21.604)" fill="#222"/>
  </g>
</svg>
