<svg xmlns="http://www.w3.org/2000/svg" xmlns:xlink="http://www.w3.org/1999/xlink" width="360" height="360" viewBox="0 0 360 360">
  <defs>
    <clipPath id="clip-Cross">
      <rect width="360" height="360"/>
    </clipPath>
  </defs>
  <g id="Cross" clip-path="url(#clip-Cross)">
    <g id="グループ_10962" data-name="グループ 10962" transform="translate(0 3.5)">
      <path id="合体_15" data-name="合体 15" d="M20363.5-8845.491c-1.906.044-9.842.2-16.137-.01a96.588,96.588,0,0,1-12.268-.959c-2.232-.282-5.639-.765-10.408-1.79-2.18-.467-8.119-1.99-8.119-1.99s-10.227-3.462-14.68-5.124-10.936-5.072-18.654-9.884-7.551-5.088-12.645-9.2a89.183,89.183,0,0,1-7.918-7.089l-5.535-5.509,31.488-39.735s6.211,6.438,11.854,11.218a98.518,98.518,0,0,0,10.705,7.9,78.679,78.679,0,0,0,11.98,6.632,93.448,93.448,0,0,0,12.469,4.165,39.677,39.677,0,0,0,5.416.929c3.068.308,6.381.405,7,.436.543.027,12.8.006,15.453,0v-37l74,65-74,65ZM20116.854-8849H20081v-50s36.648.082,38.156,0,7.936-.087,11.131-.811a77.266,77.266,0,0,0,12.586-3.451,63.169,63.169,0,0,0,12.582-5.786c4.662-2.678,9.258-5.606,17.193-12.6s85.5-101.378,87.98-103.84a149.047,149.047,0,0,1,13.766-11.792,161.459,161.459,0,0,1,18.363-11.715,89.7,89.7,0,0,1,15.1-7.13,75.346,75.346,0,0,1,8.113-2.672c4.607-1.328,10.393-2.508,10.393-2.508a121.092,121.092,0,0,1,12.012-1.693c5.625-.476,22.42-.389,25.123-.371V-9106.5l74,65-74,65v-36.54h-14.787s-5.35.159-6.8.318-5.658.887-5.658.887a67.732,67.732,0,0,0-12.172,3.575,93.943,93.943,0,0,0-12.428,6.463l-10.766,8.119-11.6,11.1-17.855,20.327-25.271,32.605s-33.709,40.5-44.156,49.332a148.041,148.041,0,0,1-20.9,14.645,98.441,98.441,0,0,1-19.08,9.468,148.791,148.791,0,0,1-23.594,6.242,91.147,91.147,0,0,1-11.4.954c-.561.024-1.877.032-3.385.032C20120.633-8848.967,20116.854-8849,20116.854-8849Zm47.6-144.5A197.987,197.987,0,0,0,20146-9004.51a99.4,99.4,0,0,0-15.869-4.692,63.438,63.438,0,0,0-10.1-.795H20081v-50h47.25s14.352,1.743,18.563,2.877,14.73,4.206,22.824,8.094,10.32,5.1,20.24,11.981a217.865,217.865,0,0,1,19.424,15.542l-31.406,39.827S20167.857-8991.071,20164.457-8993.5Z" transform="translate(-20081 9131)"/>
    </g>
  </g>
</svg>
