<svg xmlns="http://www.w3.org/2000/svg" viewBox="0 0 36 36"><g transform="translate(-181 -141)"><g transform="translate(181 141)" fill="#f6f6f6" stroke="#eee" stroke-width="2"><rect width="36" height="36" rx="18" stroke="none"/><rect x="1" y="1" width="34" height="34" rx="17" fill="none"/></g><g transform="translate(190 151)"><path d="M13.86,9.642H.72A.821.821,0,0,1,0,8.786a.73.73,0,0,1,.72-.76H13.86a2.688,2.688,0,0,0,2.61-2.755,2.688,2.688,0,0,0-2.61-2.755,2.688,2.688,0,0,0-2.61,2.755,5.012,5.012,0,0,0,.18,1.14.819.819,0,0,1-.36,1.045.74.74,0,0,1-.99-.38,4.038,4.038,0,0,1-.36-1.805A4.25,4.25,0,0,1,13.86.9,4.25,4.25,0,0,1,18,5.271,4.25,4.25,0,0,1,13.86,9.642Z" transform="translate(0 -0.045)" fill="#222"/><path d="M11.34,17.841a3.48,3.48,0,0,1-3.33-3.516,1.948,1.948,0,0,1,.09-.76A.8.8,0,0,1,9,13a.848.848,0,0,1,.54.95,4.318,4.318,0,0,0-.09.475,1.858,1.858,0,0,0,1.8,1.9,1.9,1.9,0,0,0,0-3.8H.72A.761.761,0,0,1,.72,11H11.25a3.48,3.48,0,0,1,3.33,3.516A3.237,3.237,0,0,1,11.34,17.841Z" transform="translate(0 -0.548)" fill="#222"/><path d="M.72,7.031a.761.761,0,0,1,0-1.52H5.67a1.858,1.858,0,0,0,1.8-1.9,1.858,1.858,0,0,0-1.8-1.9,1.858,1.858,0,0,0-1.8,1.9.9.9,0,0,0,.09.475.848.848,0,0,1-.54.95,1.013,1.013,0,0,1-.99-.665,2.77,2.77,0,0,1-.09-.855A3.48,3.48,0,0,1,5.67,0,3.48,3.48,0,0,1,9,3.516,3.48,3.48,0,0,1,5.67,7.031Z" fill="#222"/></g></g></svg>