<svg xmlns="http://www.w3.org/2000/svg" viewBox="0 0 36 36"><g transform="translate(-182 -371)"><g transform="translate(184 373)" fill="#f6f6f6" stroke="#eee" stroke-width="2"><rect width="32" height="32" stroke="none"/><rect x="1" y="1" width="30" height="30" fill="none"/></g><path d="M-4.716-6.42a1.333,1.333,0,0,0-.618-.426,2.215,2.215,0,0,0-.738-.138,1.934,1.934,0,0,0-.42.048,1.61,1.61,0,0,0-.408.15.889.889,0,0,0-.312.27.684.684,0,0,0-.12.408.676.676,0,0,0,.288.588,2.727,2.727,0,0,0,.726.348q.438.144.942.288a3.881,3.881,0,0,1,.942.408,2.23,2.23,0,0,1,.726.708A2.158,2.158,0,0,1-3.42-2.58a2.731,2.731,0,0,1-.264,1.236A2.508,2.508,0,0,1-4.4-.468,3.038,3.038,0,0,1-5.442.048,4.587,4.587,0,0,1-6.7.216,4.549,4.549,0,0,1-8.232-.036a3.849,3.849,0,0,1-1.32-.816L-8.22-2.316a1.944,1.944,0,0,0,.726.594,2.072,2.072,0,0,0,.906.21,2.05,2.05,0,0,0,.462-.054,1.5,1.5,0,0,0,.42-.162A.906.906,0,0,0-5.406-2a.688.688,0,0,0,.114-.4.718.718,0,0,0-.294-.606,2.71,2.71,0,0,0-.738-.378q-.444-.156-.96-.312a4.311,4.311,0,0,1-.96-.42,2.314,2.314,0,0,1-.738-.7,1.991,1.991,0,0,1-.294-1.14,2.552,2.552,0,0,1,.27-1.2,2.6,2.6,0,0,1,.72-.864,3.13,3.13,0,0,1,1.038-.522,4.249,4.249,0,0,1,1.212-.174,4.765,4.765,0,0,1,1.392.2,3.211,3.211,0,0,1,1.212.684Zm7.98,5.412a2.872,2.872,0,0,1-1.092.852A3.271,3.271,0,0,1,.8.144,3.676,3.676,0,0,1-.462-.072,3.047,3.047,0,0,1-1.494-.69a2.9,2.9,0,0,1-.69-.966,3.055,3.055,0,0,1-.252-1.26,3.055,3.055,0,0,1,.252-1.26,2.9,2.9,0,0,1,.69-.966A3.047,3.047,0,0,1-.462-5.76,3.676,3.676,0,0,1,.8-5.976a2.88,2.88,0,0,1,1.134.216,2.361,2.361,0,0,1,.864.618,2.814,2.814,0,0,1,.546.966,3.894,3.894,0,0,1,.192,1.26v.564H-.636a1.425,1.425,0,0,0,.468.822,1.324,1.324,0,0,0,.888.306,1.352,1.352,0,0,0,.75-.2A2.017,2.017,0,0,0,2-1.932ZM1.74-3.576a1.042,1.042,0,0,0-.3-.78,1.067,1.067,0,0,0-.8-.324,1.352,1.352,0,0,0-.528.1,1.323,1.323,0,0,0-.39.246,1.078,1.078,0,0,0-.252.348,1.146,1.146,0,0,0-.1.414Zm6.84-.372a1.009,1.009,0,0,0-.372-.318,1.094,1.094,0,0,0-.516-.126,1.376,1.376,0,0,0-1.062.408,1.509,1.509,0,0,0-.378,1.068A1.509,1.509,0,0,0,6.63-1.848a1.376,1.376,0,0,0,1.062.408.971.971,0,0,0,.516-.132,1.574,1.574,0,0,0,.372-.312L9.768-.636a2.3,2.3,0,0,1-.99.606A3.72,3.72,0,0,1,7.692.144,3.676,3.676,0,0,1,6.426-.072,3.047,3.047,0,0,1,5.394-.69a2.9,2.9,0,0,1-.69-.966,3.055,3.055,0,0,1-.252-1.26A3.055,3.055,0,0,1,4.7-4.176a2.9,2.9,0,0,1,.69-.966A3.047,3.047,0,0,1,6.426-5.76a3.676,3.676,0,0,1,1.266-.216A3.72,3.72,0,0,1,8.778-5.8a2.3,2.3,0,0,1,.99.606Z" transform="translate(200 393)" fill="#222"/><rect width="36" height="36" transform="translate(182 371)" fill="none"/></g></svg>