<svg xmlns="http://www.w3.org/2000/svg" xmlns:xlink="http://www.w3.org/1999/xlink" viewBox="0 0 36 36"><defs><clipPath id="a"><rect width="34.4" height="34.4" rx="17.2" transform="translate(0 0)" fill="#f6f6f6" stroke="#eee" stroke-width="2"/></clipPath></defs><g transform="translate(-181 -233)"><g transform="translate(181 233)" fill="#f6f6f6" stroke="#eee" stroke-width="2"><rect width="36" height="36" rx="18" stroke="none"/><rect x="1" y="1" width="34" height="34" rx="17" fill="none"/></g><g transform="translate(182.6 233.8)" clip-path="url(#a)"><path d="M4.875,21.94,0,0H5.851A2.56,2.56,0,0,1,8.045,1.219L19.5,21.94Z" transform="translate(13.929 28.222) rotate(-90)" fill="#f6f6f6" stroke="#222" stroke-linecap="round" stroke-miterlimit="10" stroke-width="2"/></g><path d="M3.8,13.224a.612.612,0,0,1-.228-.836l.821-1.443-1.125.3a.627.627,0,0,1-.3-1.216l2.294-.608.56-.985A2.531,2.531,0,0,1,5.169,7.3H4.1L2.28,9.044a.591.591,0,0,1-.836-.836L2.356,7.3H.608A.654.654,0,0,1,0,6.688.654.654,0,0,1,.608,6.08H2.2l-.76-.76a.591.591,0,1,1,.836-.836l1.6,1.6H5.159a2.1,2.1,0,0,1,.693-1.14l.008-.008-.6-1.058L2.964,3.268a.674.674,0,0,1-.456-.76.674.674,0,0,1,.76-.456l1.125.3L3.572.912A.613.613,0,0,1,4.636.3l.829,1.457L5.776.608a.675.675,0,0,1,.76-.457.675.675,0,0,1,.457.76L6.366,3.345l.542.953A2.239,2.239,0,0,1,7.6,4.18a2.448,2.448,0,0,1,.635.084l.587-1.032L8.208.912a.61.61,0,0,1,.456-.76.61.61,0,0,1,.76.457L9.71,1.671,10.488.3a.613.613,0,0,1,1.064.608l-.805,1.459,1.185-.319a.61.61,0,0,1,.76.456.592.592,0,0,1-.152.608.4.4,0,0,1-.3.152l-2.323.615L9.35,4.9a2.533,2.533,0,0,1,.682,1.176h1.208L12.92,4.332a.591.591,0,1,1,.836.836l-.912.912h1.748a.654.654,0,0,1,.608.608,1.076,1.076,0,0,1-.152.456.642.642,0,0,1-.456.152H13l.76.76a.792.792,0,0,1,0,.988.6.6,0,0,1-.836,0L11.172,7.3H10.041a2.1,2.1,0,0,1-.672,1.122l.573,1.007,2.294.608a.673.673,0,0,1,.456.76.4.4,0,0,1-.152.3.591.591,0,0,1-.608.152l-1.125-.3.821,1.443a.664.664,0,0,1-.076.76.266.266,0,0,1-.152.076A.611.611,0,0,1,10.564,13l-.83-1.458-.311,1.154a.627.627,0,0,1-1.216-.3l.638-2.411-.518-.911A2.257,2.257,0,0,1,7.6,9.2a2.448,2.448,0,0,1-.737-.114l-.509.895.639,2.411A.592.592,0,0,1,6.84,13a.394.394,0,0,1-.3.152.61.61,0,0,1-.76-.456l-.311-1.153L4.636,13a.263.263,0,0,1-.076.152.589.589,0,0,1-.42.182A.614.614,0,0,1,3.8,13.224ZM7.6,7.98a1.223,1.223,0,0,0,.551-.134.536.536,0,0,1,.133-.093q.032-.016.064-.028a1.315,1.315,0,0,0,.544-1.036A1.332,1.332,0,0,0,7.6,5.4a1.264,1.264,0,0,0-.544.119A.085.085,0,0,1,7,5.544a1.324,1.324,0,0,0-.31.232,1.259,1.259,0,0,0-.38.912,1.315,1.315,0,0,0,.544,1.036q.033.013.064.028a.537.537,0,0,1,.133.094A1.223,1.223,0,0,0,7.6,7.98Z" transform="translate(188.6 241.8)" fill="#222" stroke="#f6f6f6" stroke-width="3"/><path d="M3.8,13.224a.612.612,0,0,1-.228-.836l.821-1.443-1.125.3a.627.627,0,0,1-.3-1.216l2.294-.608.56-.985A2.531,2.531,0,0,1,5.169,7.3H4.1L2.28,9.044a.591.591,0,0,1-.836-.836L2.356,7.3H.608A.654.654,0,0,1,0,6.688.654.654,0,0,1,.608,6.08H2.2l-.76-.76a.591.591,0,1,1,.836-.836l1.6,1.6H5.159a2.1,2.1,0,0,1,.693-1.14l.008-.008-.6-1.058L2.964,3.268a.674.674,0,0,1-.456-.76.674.674,0,0,1,.76-.456l1.125.3L3.572.912A.613.613,0,0,1,4.636.3l.829,1.457L5.776.608a.675.675,0,0,1,.76-.457.675.675,0,0,1,.457.76L6.366,3.345l.542.953A2.239,2.239,0,0,1,7.6,4.18a2.448,2.448,0,0,1,.635.084l.587-1.032L8.208.912a.61.61,0,0,1,.456-.76.61.61,0,0,1,.76.457L9.71,1.671,10.488.3a.613.613,0,0,1,1.064.608l-.805,1.459,1.185-.319a.61.61,0,0,1,.76.456.592.592,0,0,1-.152.608.4.4,0,0,1-.3.152l-2.323.615L9.35,4.9a2.533,2.533,0,0,1,.682,1.176h1.208L12.92,4.332a.591.591,0,1,1,.836.836l-.912.912h1.748a.654.654,0,0,1,.608.608,1.076,1.076,0,0,1-.152.456.642.642,0,0,1-.456.152H13l.76.76a.792.792,0,0,1,0,.988.6.6,0,0,1-.836,0L11.172,7.3H10.041a2.1,2.1,0,0,1-.672,1.122l.573,1.007,2.294.608a.673.673,0,0,1,.456.76.4.4,0,0,1-.152.3.591.591,0,0,1-.608.152l-1.125-.3.821,1.443a.664.664,0,0,1-.076.76.266.266,0,0,1-.152.076A.611.611,0,0,1,10.564,13l-.83-1.458-.311,1.154a.627.627,0,0,1-1.216-.3l.638-2.411-.518-.911A2.257,2.257,0,0,1,7.6,9.2a2.448,2.448,0,0,1-.737-.114l-.509.895.639,2.411A.592.592,0,0,1,6.84,13a.394.394,0,0,1-.3.152.61.61,0,0,1-.76-.456l-.311-1.153L4.636,13a.263.263,0,0,1-.076.152.589.589,0,0,1-.42.182A.614.614,0,0,1,3.8,13.224ZM7.6,7.98a1.223,1.223,0,0,0,.551-.134.536.536,0,0,1,.133-.093q.032-.016.064-.028a1.315,1.315,0,0,0,.544-1.036A1.332,1.332,0,0,0,7.6,5.4a1.264,1.264,0,0,0-.544.119A.085.085,0,0,1,7,5.544a1.324,1.324,0,0,0-.31.232,1.259,1.259,0,0,0-.38.912,1.315,1.315,0,0,0,.544,1.036q.033.013.064.028a.537.537,0,0,1,.133.094A1.223,1.223,0,0,0,7.6,7.98Z" transform="translate(188.2 241.8)" fill="#222"/><g transform="translate(181 233)" fill="none" stroke="#eee" stroke-width="2"><rect width="36" height="36" rx="18" stroke="none"/><rect x="1" y="1" width="34" height="34" rx="17" fill="none"/></g></g></svg>