<svg xmlns="http://www.w3.org/2000/svg" xmlns:xlink="http://www.w3.org/1999/xlink" width="18" height="14" viewBox="0 0 18 14">
  <defs>
    <clipPath id="clip-RMKS_Active_Dark">
      <rect width="18" height="14"/>
    </clipPath>
  </defs>
  <g id="RMKS_Active_Dark" clip-path="url(#clip-RMKS_Active_Dark)">
    <g id="Icon_Remarks" transform="translate(0 0)">
      <g id="パス_1909" data-name="パス 1909" transform="translate(0 0)">
        <path d="M 9.523093223571777 13.5 C 8.275213241577148 13.5 7.494223117828369 13.47774028778076 5.954813480377197 13.02068042755127 C 4.526753425598145 12.59668064117432 3.579253435134888 11.65734004974365 3.569843292236328 11.64790058135986 L 3.314393281936646 11.39151000976562 L 2.990213394165039 11.55330085754395 C 2.269033670425415 11.91590023040771 1.404027342796326 12.2981128692627 0.8117066621780396 12.50434494018555 C 0.8535484075546265 12.42958545684814 0.8951936960220337 12.35579013824463 0.9336532950401306 12.28764057159424 C 1.751853346824646 10.83777046203613 2.077093362808228 10.15229034423828 1.757963299751282 9.673060417175293 C 1.175893306732178 8.815200805664062 0.8941233158111572 7.942010402679443 0.8941233158111572 7.000000476837158 C 0.8941233158111572 3.415890455245972 4.61880350112915 0.5000004768371582 9.197063446044922 0.5000004768371582 C 13.77532291412354 0.5000004768371582 17.50000381469727 3.415890455245972 17.50000381469727 7.000000476837158 C 17.50000381469727 8.736100196838379 16.70574378967285 10.35786056518555 15.26353359222412 11.56653022766113 C 13.77581310272217 12.81335067749023 11.73714351654053 13.5 9.523093223571777 13.5 Z" stroke="none"/>
        <path d="M 9.523093223571777 13 C 11.61990356445312 13 13.5445032119751 12.35482025146484 14.94237327575684 11.18331050872803 C 16.26925277709961 10.07129001617432 17.00000381469727 8.585630416870117 17.00000381469727 7.000000476837158 C 17.00000381469727 3.691590547561646 13.49962329864502 1.000000476837158 9.197063446044922 1.000000476837158 C 4.894503116607666 1.000000476837158 1.394123315811157 3.691590547561646 1.394123315811157 7.000000476837158 C 1.394123315811157 7.850290298461914 1.640433311462402 8.609320640563965 2.169283390045166 9.388710021972656 L 2.17413330078125 9.395930290222168 C 2.555476188659668 9.968594551086426 2.362025737762451 10.64887046813965 1.930145978927612 11.50539112091064 C 2.206055402755737 11.38023090362549 2.490529775619507 11.24485492706299 2.765533208847046 11.10663032531738 L 3.412153244018555 10.77661037445068 L 3.923213243484497 11.29417037963867 C 3.931843280792236 11.30275058746338 4.801233291625977 12.15660095214844 6.097133159637451 12.54136085510254 C 7.570113182067871 12.97870063781738 8.321622848510742 13 9.523093223571777 13 M 9.523093223571777 14 C 8.234723091125488 14 7.392093181610107 13.96899032592773 5.812503337860107 13.5 C 4.232913494110107 13.03101062774658 3.214843273162842 12 3.214843273162842 12 C 3.214843273162842 11.99999904632568 0.2299733906984329 13.50121879577637 0.01173331867903471 13.08543014526367 C -0.1601366847753525 12.93859004974365 1.646713376045227 10.40809059143066 1.341793298721313 9.950190544128418 C 0.8161233067512512 9.175480842590332 0.3941233158111572 8.220640182495117 0.3941233158111572 7.000000476837158 C 0.3941233158111572 3.134010553359985 4.335333347320557 4.76837158203125e-07 9.197063446044922 4.76837158203125e-07 C 14.05879306793213 4.76837158203125e-07 18.00000381469727 3.134010553359985 18.00000381469727 7.000000476837158 C 18.00000381469727 10.86599063873291 14.38482284545898 14 9.523093223571777 14 Z" stroke="none" fill="#fff"/>
      </g>
      <g id="グループ_6905" data-name="グループ 6905" transform="translate(5.782 6.356)">
        <path id="パス_1915" data-name="パス 1915" d="M135.487,165.543a.643.643,0,1,1-.643-.643A.641.641,0,0,1,135.487,165.543Z" transform="translate(-134.2 -164.9)" fill="#fff"/>
        <path id="パス_1916" data-name="パス 1916" d="M135.487,165.543a.643.643,0,1,1-.643-.643A.641.641,0,0,1,135.487,165.543Z" transform="translate(-130.983 -164.9)" fill="#fff"/>
        <path id="パス_1917" data-name="パス 1917" d="M135.487,165.543a.643.643,0,1,1-.643-.643A.641.641,0,0,1,135.487,165.543Z" transform="translate(-127.766 -164.9)" fill="#fff"/>
      </g>
    </g>
  </g>
</svg>
