<svg xmlns="http://www.w3.org/2000/svg" viewBox="0 0 35.025 32"><defs><style>.a,.b{fill:none;stroke:#346181;stroke-linecap:round;stroke-miterlimit:10;stroke-width:2px;}.a{stroke-linejoin:round;}</style></defs><g transform="translate(0.5 0.5)"><path class="a" d="M28.093,10.786H6.219L5.075,7.5a1.373,1.373,0,0,0-1.287-1H.5l1.287,7.429a1.392,1.392,0,0,0,1.43,1.143H13.51L10.651,27.929H14.94l7.148-12.857H32.525a1.036,1.036,0,0,0,.715-1.714l-.858-.857A6.307,6.307,0,0,0,28.093,10.786Z" transform="translate(0 2.571)"/><path class="b" d="M10.359,13.357,7.5.5h3.431a1.5,1.5,0,0,1,1.287.714l6.719,12.143Z" transform="translate(3.008)"/></g></svg>