<svg xmlns="http://www.w3.org/2000/svg" xmlns:xlink="http://www.w3.org/1999/xlink" width="24" height="24" viewBox="0 0 24 24">
  <defs>
    <clipPath id="clip-path">
      <rect id="長方形_10859" data-name="長方形 10859" width="24" height="24"/>
    </clipPath>
    <clipPath id="clip-path-2">
      <rect id="長方形_10858" data-name="長方形 10858" width="24" height="24" fill="none"/>
    </clipPath>
  </defs>
  <g id="Icon_System_W24xH24_" data-name="Icon_System(W24xH24)" clip-path="url(#clip-path)">
    <g id="Icon_System_W24xH24_2" data-name="Icon_System(W24xH24)" clip-path="url(#clip-path)">
      <g id="Icon_System_W40xH40_" data-name="Icon_System(W40xH40)" clip-path="url(#clip-path-2)">
        <g id="グループ_7828" data-name="グループ 7828">
          <g id="楕円形_110" data-name="楕円形 110" fill="#fff" stroke="#595857" stroke-width="1">
            <circle cx="12" cy="12" r="12" stroke="none"/>
            <circle cx="12" cy="12" r="11.5" fill="none"/>
          </g>
          <g id="グループ_7218" data-name="グループ 7218" transform="translate(5.739 7.939)">
            <path id="パス_2143" data-name="パス 2143" d="M11.974,0H.746A.754.754,0,0,0,0,.746V8.794a.746.746,0,0,0,.746.746h5l-.183.55c-1.374.065-2.381.262-2.381.511,0,.288,1.426.523,3.18.523s3.18-.236,3.18-.523c0-.248-1.007-.458-2.381-.511l-.183-.55h5a.746.746,0,0,0,.745-.746V.746A.754.754,0,0,0,11.974,0ZM6.91,8.611a.2.2,0,0,1-.2.2h-.72a.2.2,0,0,1-.2-.2V8.336a.2.2,0,0,1,.2-.2h.72a.2.2,0,0,1,.2.2Zm4.75-1.57a.38.38,0,0,1-.38.379H1.44a.38.38,0,0,1-.379-.379V1.44a.38.38,0,0,1,.379-.38h9.853a.38.38,0,0,1,.379.379v5.6Z" fill="#595857"/>
          </g>
          <g id="グループ_7225" data-name="グループ 7225" transform="translate(13.2 4.2)">
            <g id="パス_2154" data-name="パス 2154" transform="translate(0 3.6)">
              <path id="パス_3433" data-name="パス 3433" d="M5.542,8.234a.669.669,0,0,1-.692-.692A1.641,1.641,0,0,0,3.192,5.883a.692.692,0,1,1,0-1.383A3.083,3.083,0,0,1,6.234,7.542.669.669,0,0,1,5.542,8.234Z" transform="translate(-2.2 -4.2)" fill="#595857"/>
              <path id="パス_3434" data-name="パス 3434" d="M5.342,7.734a.37.37,0,0,0,.392-.392A2.776,2.776,0,0,0,2.992,4.6a.392.392,0,1,0,0,.783A1.94,1.94,0,0,1,4.95,7.342a.37.37,0,0,0,.392.392m0,.6a.97.97,0,0,1-.992-.992A1.344,1.344,0,0,0,2.992,5.983.992.992,0,1,1,2.992,4a3.314,3.314,0,0,1,2.353.989,3.314,3.314,0,0,1,.989,2.353A.97.97,0,0,1,5.342,8.334Z" transform="translate(-2 -4)" fill="#fff"/>
            </g>
            <g id="パス_2155" data-name="パス 2155" transform="translate(0 1.8)">
              <path id="パス_3435" data-name="パス 3435" d="M7.5,7.692A.669.669,0,0,1,6.809,7,3.579,3.579,0,0,0,3.192,3.383.669.669,0,0,1,2.5,2.692.669.669,0,0,1,3.192,2a5.014,5.014,0,0,1,5,5A.669.669,0,0,1,7.5,7.692Z" transform="translate(-2.2 -1.7)" fill="#595857"/>
              <path id="パス_3436" data-name="パス 3436" d="M7.3,7.192A.37.37,0,0,0,7.692,6.8a4.714,4.714,0,0,0-4.7-4.7.37.37,0,0,0-.392.392.37.37,0,0,0,.392.392A3.879,3.879,0,0,1,6.909,6.8a.37.37,0,0,0,.392.392m0,.6A.97.97,0,0,1,6.309,6.8,3.282,3.282,0,0,0,2.992,3.483.97.97,0,0,1,2,2.492.97.97,0,0,1,2.992,1.5a5.314,5.314,0,0,1,5.3,5.3A.97.97,0,0,1,7.3,7.792Z" transform="translate(-2 -1.5)" fill="#fff"/>
            </g>
            <g id="パス_2156" data-name="パス 2156" transform="translate(0 0)">
              <path id="パス_3437" data-name="パス 3437" d="M9.459,7.151a.669.669,0,0,1-.692-.692A5.65,5.65,0,0,0,3.192.883.669.669,0,0,1,2.5.192.669.669,0,0,1,3.192-.5a6.953,6.953,0,0,1,6.959,6.959A.669.669,0,0,1,9.459,7.151Z" transform="translate(-2.2 0.8)" fill="#595857"/>
              <path id="パス_3438" data-name="パス 3438" d="M9.259,6.651a.37.37,0,0,0,.392-.392A6.653,6.653,0,0,0,2.992-.4.37.37,0,0,0,2.6-.008a.37.37,0,0,0,.392.392A5.918,5.918,0,0,1,8.867,6.259a.37.37,0,0,0,.392.392m0,.6a.97.97,0,0,1-.992-.992A5.346,5.346,0,0,0,2.992.983.97.97,0,0,1,2-.008.97.97,0,0,1,2.992-1a7.253,7.253,0,0,1,7.259,7.259A.97.97,0,0,1,9.259,7.251Z" transform="translate(-2 1)" fill="#fff"/>
            </g>
          </g>
        </g>
      </g>
    </g>
  </g>
</svg>
