<svg xmlns="http://www.w3.org/2000/svg" viewBox="0 0 22 21.94"><g id="レイヤー_2" data-name="レイヤー 2"><g id="レイヤー_1-2" data-name="レイヤー 1"><g id="レイヤー_2-2" data-name="レイヤー 2"><g id="レイヤー_1-2-2" data-name="レイヤー 1-2"><g id="グループ化_6155" data-name="グループ化 6155"><path d="M6.27,20.23a1,1,0,0,1-.71-.29l-3.5-3.5a1,1,0,0,1-.29-.71,1,1,0,0,1,.29-.7L16.79.29A1,1,0,0,1,17.5,0h0a1,1,0,0,1,.71.29l3.5,3.5a1,1,0,0,1,0,1.41h0L7,19.94A1,1,0,0,1,6.27,20.23Zm-2.09-4.5,2.09,2.09L19.59,4.5,17.5,2.41Z"/><path d="M1,21.94a1,1,0,0,1-.71-.3,1,1,0,0,1-.24-1l1.74-5.21a1,1,0,0,1,.72-.66,1,1,0,0,1,.93.27L6.92,18.5a1,1,0,0,1,0,1.41,1,1,0,0,1-.38.24l-5.2,1.74A1.25,1.25,0,0,1,1,21.94Zm2.17-4.36-.59,1.78,1.78-.6Z"/><rect x="15.49" y="1.94" width="2" height="6.53" transform="translate(1.15 13.19) rotate(-45)"/></g></g></g></g></g></svg>
