<svg xmlns="http://www.w3.org/2000/svg" viewBox="0 0 28 28"><g id="レイヤー_2" data-name="レイヤー 2"><g id="レイヤー_1-2" data-name="レイヤー 1"><g id="グループ化_6625" data-name="グループ化 6625"><path class="cls-1" d="M11.15,22.3A11.15,11.15,0,1,1,22.3,11.15,11.16,11.16,0,0,1,11.15,22.3Zm0-20.3a9.15,9.15,0,1,0,9.15,9.15A9.17,9.17,0,0,0,11.15,2Z"/><path class="cls-1" d="M25.31,28a2.61,2.61,0,0,1-1.82-.73l-.07-.07-4-3.95a2.62,2.62,0,0,1-.8-1.83,2.59,2.59,0,0,1,.73-1.88l.07-.07a2.62,2.62,0,0,1,1.83-.8,2.71,2.71,0,0,1,1.88.72l.07.08,3.95,4a2.6,2.6,0,0,1,.8,1.82,2.63,2.63,0,0,1-.72,1.88l-.07.07A2.63,2.63,0,0,1,25.31,28Zm-4-7.33a.63.63,0,0,0-.44.19.69.69,0,0,0-.23.52.63.63,0,0,0,.19.44l4,4a.65.65,0,0,0,.94,0h0v0a.68.68,0,0,0,.2-.48.57.57,0,0,0-.2-.44l-4-4A.74.74,0,0,0,21.34,20.67Z"/><rect class="cls-1" x="18.05" y="17.45" width="2" height="3.19" transform="translate(-7.89 19.05) rotate(-45)"/></g></g></g></svg>
