<svg xmlns="http://www.w3.org/2000/svg" xmlns:xlink="http://www.w3.org/1999/xlink" width="20" height="20" viewBox="0 0 20 20">
  <defs>
    <clipPath id="clip-path">
      <rect id="長方形_5687" data-name="長方形 5687" width="20" height="20"/>
    </clipPath>
  </defs>
  <g id="SHIP" clip-path="url(#clip-path)">
    <g id="飛行機の無料アイコン素材_1_" data-name="飛行機の無料アイコン素材 (1)" transform="translate(0 0)">
      <path id="パス_2638" data-name="パス 2638" d="M19.963,11.2a1.157,1.157,0,0,0-.712-1L11.569,7.263A19.147,19.147,0,0,0,10.663.989C10.412.335,10.4,0,10,0s-.559.349-.812.989a20.126,20.126,0,0,0-.672,6.274L.749,10.194a1.156,1.156,0,0,0-.712,1L0,12.214a.493.493,0,0,0,.192.4.6.6,0,0,0,.463.121s6.05-1.256,7.861-1.541c.02.9.452,5.42.452,5.42l-2.425.956a.625.625,0,0,0-.391.581v.374a.628.628,0,0,0,.194.455.612.612,0,0,0,.459.17l2.532-.145c.081.571.347.991.663.991s.581-.42.663-.991l2.533.145a.612.612,0,0,0,.459-.17.628.628,0,0,0,.194-.455v-.374a.625.625,0,0,0-.391-.582l-2.375-.956s.465-4.424.487-5.42c1.811.285,7.776,1.541,7.776,1.541a.6.6,0,0,0,.463-.121.5.5,0,0,0,.192-.4Z" transform="translate(20) rotate(90)" fill="#222"/>
    </g>
  </g>
</svg>
