<svg xmlns="http://www.w3.org/2000/svg" width="19" height="24" viewBox="0 0 19 24">
  <g id="ごみ箱のフリーアイコン" transform="translate(-55.332)">
    <path id="パス_2803" data-name="パス 2803" d="M73.5,3.232a9.236,9.236,0,0,1-2.052-.555,19.814,19.814,0,0,0-3.825-.709L67.5,1.074A1.236,1.236,0,0,0,66.283,0h-2.9a1.237,1.237,0,0,0-1.213,1.074l-.129.894a19.812,19.812,0,0,0-3.824.709,9.234,9.234,0,0,1-2.053.555,1.139,1.139,0,0,0-.83,1.106v.774h19V4.338A1.139,1.139,0,0,0,73.5,3.232Z" />
    <path id="パス_2804" data-name="パス 2804" d="M64.167,152.685a2.435,2.435,0,0,0,2.447,2.191h10.97a2.436,2.436,0,0,0,2.447-2.191l1.215-15.164H62.952Zm12.007-11.81a.722.722,0,0,1,1.442.085l-.687,11.1a.722.722,0,0,1-1.442-.085Zm-4.8.043a.722.722,0,0,1,1.444,0v11.1a.722.722,0,0,1-1.444,0Zm-4.118-.705a.717.717,0,0,1,.764.663l.687,11.1a.722.722,0,0,1-1.442.085l-.687-11.1A.712.712,0,0,1,67.258,140.213Z" transform="translate(-7.267 -130.876)" />
  </g>
</svg>
