<svg xmlns="http://www.w3.org/2000/svg" xmlns:xlink="http://www.w3.org/1999/xlink" width="100" height="82" viewBox="0 0 100 82">
  <defs>
    <clipPath id="clip-B.B.__menu_icon">
      <rect width="100" height="82"/>
    </clipPath>
  </defs>
  <g id="B.B.__menu_icon" data-name="B.B. _menu_icon" clip-path="url(#clip-B.B.__menu_icon)">
    <g id="吹き出しのアイコン7" transform="translate(0 -45.801)">
      <path id="パス_2941" data-name="パス 2941" d="M19.127,113.954a.707.707,0,0,1-.13-.416L23.721,103l-2.285-1.171A32.118,32.118,0,0,1,9.721,91.94,22.678,22.678,0,0,1,5.412,78.8,22.179,22.179,0,0,1,8.1,68.288,30.572,30.572,0,0,1,20.849,56.072a42.741,42.741,0,0,1,20.117-4.854A42.191,42.191,0,0,1,62.21,56.73a29.966,29.966,0,0,1,11.973,12.4c.135.27.357.757.562,1.249l3.306.426,3.224.876c-.172-.414-1.888-4.207-2.181-4.828a34.856,34.856,0,0,0-14.153-14.8A47.6,47.6,0,0,0,40.966,45.8c-11.144,0-21.281,3.564-28.733,9.457A33.792,33.792,0,0,0,3.326,65.733,27.607,27.607,0,0,0,0,78.8,28.12,28.12,0,0,0,5.3,95.057,36.679,36.679,0,0,0,16.72,105.4l-6.348,14.206a1.219,1.219,0,0,0-.114.719c.1.256.516.307.516.307l3.8-.424a152.337,152.337,0,0,0,25.04-5.183c.449-.129,3.476-.873,4.138-1.071a16.056,16.056,0,0,1-2.035-2,24.375,24.375,0,0,1-1.872-2.642c-.474.142-.953.284-1.659.491a149.85,149.85,0,0,1-18.665,4.269A.6.6,0,0,1,19.127,113.954Z" transform="translate(0)" fill="#fff"/>
      <path id="中マド_9" data-name="中マド 9" d="M52.424,54.533h0l-4.159-.461c-12.039-1.348-23.649-5.354-29.5-7.622l-.062-.02c-3.371-1.088-9.117-4.646-9.157-4.677-.514-.384-.958-.733-1.354-1.068-.162-.137-1.124-1.008-1.428-1.3-.443-.436-.888-.905-1.319-1.4a22.428,22.428,0,0,1-3.992-6.443,20,20,0,0,1,.987-17.063,24.523,24.523,0,0,1,6.5-7.637A33.553,33.553,0,0,1,29.717,0,34.809,34.809,0,0,1,46.095,3.97a26.11,26.11,0,0,1,10.9,10.509,20.126,20.126,0,0,1,2.443,9.595A20.6,20.6,0,0,1,55.551,36a23.085,23.085,0,0,1-1.8,2.23c-.232.258-.494.515-.7.722-.086.085-.172.169-.257.255-.343.338-1.974,1.791-2.453,2.165-.188.146-1.848,1.351-2.5,1.752,0,0,0,0-.006,0l4.908,10.971c.008.022.076.22,0,.323S52.427,54.533,52.424,54.533Zm-11.077-32.2a2.723,2.723,0,1,0,2.724,2.724A2.727,2.727,0,0,0,41.348,22.332Zm-10.508,0a2.723,2.723,0,1,0,2.727,2.724A2.726,2.726,0,0,0,30.84,22.332Zm-10.5,0a2.723,2.723,0,1,0,2.726,2.724A2.727,2.727,0,0,0,20.335,22.332Z" transform="translate(40.565 73.268)" fill="#fff"/>
    </g>
  </g>
</svg>
