<?xml version="1.0" encoding="UTF-8" standalone="no"?>
<svg
   width="130.33911"
   height="141.00012"
   viewBox="0 0 130.33911 141.00013"
   version="1.1"
   id="svg41"
   sodipodi:docname="menu-myschedule_color.svg"
   inkscape:version="1.1 (c68e22c387, 2021-05-23)"
   xmlns:inkscape="http://www.inkscape.org/namespaces/inkscape"
   xmlns:sodipodi="http://sodipodi.sourceforge.net/DTD/sodipodi-0.dtd"
   xmlns="http://www.w3.org/2000/svg"
   xmlns:svg="http://www.w3.org/2000/svg">
  <sodipodi:namedview
     id="namedview43"
     pagecolor="#ffdbff"
     bordercolor="#666666"
     borderopacity="1.0"
     inkscape:pageshadow="2"
     inkscape:pageopacity="0"
     inkscape:pagecheckerboard="true"
     showgrid="false"
     fit-margin-top="19"
     fit-margin-left="0"
     fit-margin-right="0"
     fit-margin-bottom="0"
     inkscape:zoom="4.7166667"
     inkscape:cx="55.335689"
     inkscape:cy="79.823322"
     inkscape:window-width="1858"
     inkscape:window-height="1057"
     inkscape:window-x="172"
     inkscape:window-y="-8"
     inkscape:window-maximized="1"
     inkscape:current-layer="svg41" />
  <defs
     id="defs30">
    <clipPath
       id="clip-MySchedule_menu">
      <rect
         width="180"
         height="180"
         id="rect27"
         x="0"
         y="0" />
    </clipPath>
  </defs>
  <g
     id="MySchedule_menu"
     clip-path="url(#clip-MySchedule_menu)"
     transform="translate(-29,-10)">
    <g
       id="グループ_13280"
       data-name="グループ 13280"
       transform="translate(3)">
      <path
         id="中マド_12"
         data-name="中マド 12"
         d="M 35.5,71 A 35.5,35.5 0 0 1 10.4,10.4 35.5,35.5 0 1 1 60.6,60.6 35.272,35.272 0 0 1 35.5,71 Z m 0.19,-30.021 c -11.619,0 -21.073,4.727 -21.073,10.537 v 5.267 h 42.146 v -5.268 c 0,-5.809 -9.451,-10.536 -21.073,-10.536 z m 0,-26.348 A 10.539,10.539 0 1 0 46.227,25.173 10.552,10.552 0 0 0 35.69,14.631 Z"
         transform="translate(85,80)"
         fill="#ffffff" />
      <rect
         id="長方形_10817"
         data-name="長方形 10817"
         width="5"
         height="31"
         transform="rotate(90,4.5,64.5)"
         fill="#ffffff"
         x="0"
         y="0" />
      <path
         id="パス_3408"
         data-name="パス 3408"
         d="m 0,0 3.358,0.044 -0.28,4.778 9.522,-0.475 0.138,3.3 -9.872,-0.47 -2.4,0.014 z"
         transform="rotate(-45,110.76267,-59.349401)"
         fill="#ffffff" />
      <rect
         id="長方形_10828"
         data-name="長方形 10828"
         width="5"
         height="31"
         transform="rotate(90,-1.5,70.5)"
         fill="#ffffff"
         x="0"
         y="0" />
      <path
         id="パス_3413"
         data-name="パス 3413"
         d="m 0,0 3.358,0.044 -0.28,4.778 9.522,-0.475 0.138,3.3 -9.872,-0.47 -2.4,0.014 z"
         transform="rotate(-45,126.14121,-52.979401)"
         fill="#ffffff" />
      <rect
         id="長方形_10829"
         data-name="長方形 10829"
         width="5"
         height="31"
         transform="rotate(90,-8,77)"
         fill="#ffffff"
         x="0"
         y="0" />
      <path
         id="中マド_13"
         data-name="中マド 13"
         d="m 8360,10410 h -56 v -77 h 77 v 51.844 a 18.2,18.2 0 0 0 -2.453,1.017 17.225,17.225 0 0 0 -2.535,1.67 l -0.012,0.01 V 10356 h -67 v 49 h 52.719 a 13.554,13.554 0 0 0 -1.126,2.516 24.32,24.32 0 0 0 -0.593,2.484 z m 3,-69 a 5,5 0 1 0 5,5 5.006,5.006 0 0 0 -5,-5 z m -41,0 a 5,5 0 1 0 5,5 5.006,5.006 0 0 0 -5,-5 z"
         transform="translate(-8278,-10304)"
         fill="#ffffff" />
    </g>
  </g>
</svg>
