<svg xmlns="http://www.w3.org/2000/svg" xmlns:xlink="http://www.w3.org/1999/xlink" width="100" height="82" viewBox="0 0 100 82">
  <defs>
    <clipPath id="clip-Broadcast_menu_Icon">
      <rect width="100" height="82"/>
    </clipPath>
  </defs>
  <g id="Broadcast_menu_Icon" clip-path="url(#clip-Broadcast_menu_Icon)">
    <g id="グループ_13277" data-name="グループ 13277" transform="translate(-27 -39)">
      <g id="グループ_13295" data-name="グループ 13295" transform="translate(27 39)">
        <path id="中マド_10" data-name="中マド 10" d="M65.191,78.152a1.668,1.668,0,0,1-1.044-.368c-.641-.5-16.176-11.37-16.837-11.832l0,0L30.838,54.373c.323-.594,23.717-17.984,42.515-31.956l.007,0C86.459,12.674,97.773,4.264,99.3,3.02L66.555,77.147c0,.008-.359.806-.729.907A2.379,2.379,0,0,1,65.191,78.152ZM30.834,54.38h0L27.56,52.087l.013-.009,3.265,2.295,0,.007Zm-3.261-2.3h0l-.9-.635L2.939,34.764,1.59,33.816C1.574,33.807.018,32.906,0,32.2s1.5-1.236,1.52-1.242L96.753.76c-1.969,1.115-66.437,49.268-69.18,51.318ZM99.3,3.017h0l.387-.876c-.107.4-.211.712-.215.725A1.139,1.139,0,0,1,99.3,3.017Zm.39-.888h0c.2-.762.393-1.724.137-1.981a.546.546,0,0,0-.382-.1A8.672,8.672,0,0,0,97.263.57,7.906,7.906,0,0,1,99.457,0a.835.835,0,0,1,.255.033.356.356,0,0,1,.209.189c.261.52-.2,1.85-.209,1.864Z" transform="translate(0 0)" fill="#fff"/>
        <path id="パス_3445" data-name="パス 3445" d="M16.031.012c.524-.582,8.793,20.9,8.793,20.9S.509,20.808.011,19.994,15.507.594,16.031.012Z" transform="matrix(0.848, -0.53, 0.53, 0.848, 12.468, 64.262)" fill="#fff"/>
      </g>
    </g>
  </g>
</svg>
