<svg xmlns="http://www.w3.org/2000/svg" xmlns:xlink="http://www.w3.org/1999/xlink" width="100" height="90" viewBox="0 0 100 90">
  <defs>
    <clipPath id="clip-Menu_OAL_Icon_">
      <rect width="100" height="90"/>
    </clipPath>
  </defs>
  <g id="Menu_OAL_Icon_" data-name="Menu_OAL_Icon★" clip-path="url(#clip-Menu_OAL_Icon_)">
    <g id="グループ_12967" data-name="グループ 12967">
      <g id="グループ_12968" data-name="グループ 12968">
        <g id="グループ_12964" data-name="グループ 12964" transform="translate(-44.83 -27.222)">
          <g id="plane_1_" transform="translate(44.83 27.222)">
            <path id="パス_1850" data-name="パス 1850" d="M58.608,15.532H12.543L10.134,8.608A2.892,2.892,0,0,0,7.425,6.5H.5L3.21,22.156A2.932,2.932,0,0,0,6.22,24.565H27.9l-6.022,27.1h9.032l15.054-27.1H67.941a2.183,2.183,0,0,0,1.505-3.613L67.64,19.145A13.277,13.277,0,0,0,58.608,15.532Z" transform="translate(-0.5 11.565)" fill="#fff"/>
            <path id="パス_1851" data-name="パス 1851" d="M13.522,25.768,7.5.5h7.226a3.162,3.162,0,0,1,2.71,1.505L31.586,25.768Z" transform="translate(13.575 -0.5)" fill="#fff"/>
          </g>
        </g>
        <g id="グループ_12965" data-name="グループ 12965" transform="translate(48 41)">
          <g id="グループ_12942" data-name="グループ 12942" transform="translate(6 6)">
            <g id="パス_3394" data-name="パス 3394" fill="none">
              <path d="M0,0H46V34.4L37.18,43H0Z" stroke="none"/>
              <path d="M 4.000003814697266 4.000003814697266 L 4.000003814697266 39 L 35.55295181274414 39 L 42 32.71352005004883 L 42 4.000003814697266 L 4.000003814697266 4.000003814697266 M 3.814697265625e-06 3.814697265625e-06 L 46 3.814697265625e-06 L 46 34.40000152587891 L 37.18034362792969 43 L 3.814697265625e-06 43 L 3.814697265625e-06 3.814697265625e-06 Z" stroke="none" fill="#fff"/>
            </g>
            <path id="パス_3395" data-name="パス 3395" d="M7.282-.087l5.033,7.461L-.179,4.946Z" transform="translate(31 38.086) rotate(-56)" fill="#fff"/>
          </g>
          <g id="グループ_12943" data-name="グループ 12943" transform="translate(6 6)">
            <path id="中マド_3" data-name="中マド 3" d="M46,13H0V0H46V13ZM35,4a3,3,0,1,0,3,3A3,3,0,0,0,35,4ZM11,4a3,3,0,1,0,3,3A3,3,0,0,0,11,4Z" transform="translate(0 0)" fill="#fff"/>
          </g>
          <path id="パス_3396" data-name="パス 3396" d="M-17.732-24.845h3.852a1.732,1.732,0,0,1,1.8-1.806,1.579,1.579,0,0,1,1.73,1.716c0,1.49-1.292,1.806-2.63,1.806h-.738v3.138h.738c2.053,0,2.953.587,2.953,2.054a1.737,1.737,0,0,1-1.892,1.851,1.991,1.991,0,0,1-2.191-2.145H-17.94c.115,3.725,2.653,5.351,6.159,5.351,3.529,0,5.559-1.987,5.559-4.764a3.859,3.859,0,0,0-2.837-3.973v-.09a3.743,3.743,0,0,0,2.537-3.7c0-2.483-1.915-4.47-5.467-4.47C-15.426-29.88-17.594-28.1-17.732-24.845Zm15.686,11.83H2.06V-29.5H-4.33v3.59h2.284Z" transform="translate(35.94 52.88)" fill="#fff"/>
        </g>
      </g>
    </g>
  </g>
</svg>
