<svg xmlns="http://www.w3.org/2000/svg" viewBox="0 0 33.181 33.036">
  <defs>
    <style>
      .cls-1 {
        fill: #fff;
      }

      .cls-2 {
        fill: #346181;
      }
    </style>
  </defs>
  <g id="グループ化_8611" data-name="グループ化 8611" transform="translate(-171.26 -259.812)">
    <path id="パス_1859" data-name="パス 1859" class="cls-1" d="M6.415,11.175l-2.6-4.328,3.03-3.03,4.184,2.6h0a15.634,15.634,0,0,1,2.741-1.154L14.926.5h4.328l1.154,4.761A10.825,10.825,0,0,1,23,6.415h0l4.184-2.6,3.03,3.03-2.6,4.184h0a9.568,9.568,0,0,1,1.3,2.741l4.761,1.154v4.328L28.92,20.408A10.249,10.249,0,0,1,27.766,23h0l2.6,4.184-3.03,3.03-4.184-2.6h0a20.438,20.438,0,0,1-2.6,1.154L19.4,33.536H15.07l-1.154-4.761a6.8,6.8,0,0,1-2.741-1.01h0l-4.184,2.6-3.03-3.03,2.6-4.184h0a9.568,9.568,0,0,1-1.3-2.741L.5,19.254V14.926l4.761-1.154a10.825,10.825,0,0,1,1.154-2.6Z" transform="translate(170.76 259.311)"/>
    <circle id="楕円形_81" data-name="楕円形 81" class="cls-2" cx="7.213" cy="7.213" r="7.213" transform="translate(180.637 269.188)"/>
  </g>
</svg>
