<svg xmlns="http://www.w3.org/2000/svg" xmlns:xlink="http://www.w3.org/1999/xlink" viewBox="-2 20 130 150">
  <defs>
    <style>
      .cls-1 {
        fill: #346181;
      }
    </style>
  </defs>
  <g id="B.B.__menu1" data-name="B.B. _menu1" clip-path="url(#clip-B.B.__menu1)">
    <g id="吹き出しのアイコン7" transform="translate(0 0)">
      <path id="パス_2941" data-name="パス 2941" class="cls-1" d="M24.094,131.574a.89.89,0,0,1-.164-.523l5.952-13.264L27,116.313a40.448,40.448,0,0,1-14.757-12.445A28.523,28.523,0,0,1,6.817,87.335,27.893,27.893,0,0,1,10.2,74.1,38.495,38.495,0,0,1,26.264,58.728,53.88,53.88,0,0,1,51.6,52.618a53.185,53.185,0,0,1,26.761,6.937,37.728,37.728,0,0,1,15.082,15.6c.17.339.45.952.707,1.572l4.165.537,4.061,1.1c-.217-.521-2.378-5.295-2.747-6.076C96.121,64.84,89.786,58.33,81.805,53.668A60.008,60.008,0,0,0,51.6,45.8c-14.039,0-26.808,4.485-36.195,11.9A42.538,42.538,0,0,0,4.19,70.887,34.72,34.72,0,0,0,0,87.335a35.369,35.369,0,0,0,6.671,20.456,46.189,46.189,0,0,0,14.391,13.02l-8,17.878a1.533,1.533,0,0,0-.144.9c.127.323.65.386.65.386l4.783-.534A192.051,192.051,0,0,0,49.9,132.923c.566-.163,4.379-1.1,5.213-1.348a20.218,20.218,0,0,1-2.564-2.518,30.677,30.677,0,0,1-2.358-3.324c-.6.179-1.2.358-2.09.618a188.912,188.912,0,0,1-23.512,5.373A.756.756,0,0,1,24.094,131.574Z" transform="translate(0 0)" fill="#fff"/>
      <path id="パス_2942" data-name="パス 2942" class="cls-1" d="M279.052,204.519a32.977,32.977,0,0,0-13.728-13.24,43.844,43.844,0,0,0-20.629-5,42.277,42.277,0,0,0-26.175,8.619,31.04,31.04,0,0,0-8.185,9.62,25.517,25.517,0,0,0-3.076,12.086,26.537,26.537,0,0,0,6.86,17.525q.8.905,1.662,1.76c.384.375,1.591,1.464,1.8,1.642.55.466,1.123.91,1.7,1.345.078.06,7.361,4.545,11.538,5.892l.075.027c7,2.712,21.717,7.872,37.16,9.6l5.24.581s.3-.007.4-.145,0-.407,0-.407l-6.184-13.82.007,0c.808-.5,2.878-2,3.144-2.208.621-.486,2.668-2.312,3.089-2.727.406-.408.826-.8,1.21-1.229a29.769,29.769,0,0,0,2.273-2.81,25.964,25.964,0,0,0,4.891-15.019A25.526,25.526,0,0,0,279.052,204.519ZM271.659,227.7a27.522,27.522,0,0,1-10.057,8.47l-2.878,1.474s3.569,7.919,3.682,8.259a.538.538,0,0,1-.089.543s-.137.207-.752.1c-.364-.065-5.056-1-7.612-1.62-.058-.013-4.458-1.156-4.582-1.19-.588-.162-1.174-.326-1.747-.49-.062-.018-5.577-1.713-6.846-2.132-.242-.082-7.023-2.521-7.412-2.672a30.911,30.911,0,0,1-14.114-8.8,19.688,19.688,0,0,1-5.175-13.038,18.7,18.7,0,0,1,2.27-8.87,26.174,26.174,0,0,1,10.929-10.443,37.043,37.043,0,0,1,17.419-4.194,35.491,35.491,0,0,1,21.943,7.148,24.192,24.192,0,0,1,6.4,7.49,18.675,18.675,0,0,1,2.273,8.87A19.141,19.141,0,0,1,271.659,227.7Z" transform="translate(-156.34 -105.966)" fill="#fff"/>
      <path id="パス_2943" data-name="パス 2943" class="cls-1" d="M300.991,300.78a3.431,3.431,0,1,0,3.433,3.433A3.432,3.432,0,0,0,300.991,300.78Z" transform="translate(-224.456 -192.336)" fill="#fff"/>
      <path id="パス_2944" data-name="パス 2944" class="cls-1" d="M354.861,300.78a3.431,3.431,0,1,0,3.433,3.433A3.43,3.43,0,0,0,354.861,300.78Z" transform="translate(-265.093 -192.336)" fill="#fff"/>
      <path id="パス_2945" data-name="パス 2945" class="cls-1" d="M408.727,300.78a3.431,3.431,0,1,0,3.431,3.433A3.431,3.431,0,0,0,408.727,300.78Z" transform="translate(-305.724 -192.336)" fill="#fff"/>
    </g>
  </g>
</svg>
