<svg xmlns="http://www.w3.org/2000/svg" xmlns:xlink="http://www.w3.org/1999/xlink" viewBox="27 10 130 160">
  <defs>
    <style>
      .cls-1 {
        fill: #346181;
      }
    </style>
  </defs>
  <g id="e-mail_menu1" clip-path="url(#clip-e-mail_menu1)">
    <g id="メールのアイコンその9" transform="translate(28 -14.188)">
      <path id="パス_2935" data-name="パス 2935" class="cls-1" d="M123.764,69.315a16.281,16.281,0,0,0-3.375-7.139,13.739,13.739,0,0,0-1.1-1.214,16.347,16.347,0,0,0-11.518-4.774H16.295a16.184,16.184,0,0,0-11.52,4.776,14.3,14.3,0,0,0-1.109,1.228,16.088,16.088,0,0,0-3.35,7.131A15.742,15.742,0,0,0,0,72.483v64.248A16.382,16.382,0,0,0,4.774,148.25c.367.366.732.7,1.122,1.032a16.335,16.335,0,0,0,10.4,3.744h91.478a16.211,16.211,0,0,0,10.412-3.77,14.112,14.112,0,0,0,1.109-1.005,16.2,16.2,0,0,0,3.336-4.811l.106-.254a16.065,16.065,0,0,0,1.332-6.452V72.483A16.694,16.694,0,0,0,123.764,69.315ZM8.438,66.587a7.664,7.664,0,0,1,.9-1.062,9.78,9.78,0,0,1,6.956-2.887h91.478a9.708,9.708,0,0,1,6.959,2.891,9.821,9.821,0,0,1,.887,1.035l.7.94L67.491,110.06a8.3,8.3,0,0,1-10.912,0L7.8,67.517ZM6.483,137.3a3.889,3.889,0,0,1-.032-.567V73.814l37.892,33.055-37.509,32.7Zm106.171,7.979a9.779,9.779,0,0,1-4.882,1.295H16.295a9.771,9.771,0,0,1-4.881-1.295l-1.533-.889,38.756-33.774,4.247,3.694a13.938,13.938,0,0,0,18.317,0l4.246-3.7,38.742,33.778Zm4.961-8.546a4.069,4.069,0,0,1-.028.558l-.336,2.3-37.525-32.7L117.616,73.83Z" transform="translate(0)"/>
    </g>
  </g>
</svg>
