<svg xmlns="http://www.w3.org/2000/svg" viewBox="0 0 56 56">
  <defs>
    <style>
      .cls-1 {
        fill: #fff;
        stroke: #ea6512;
        stroke-width: 3px;
      }

      .cls-2 {
        fill: #ea6512;
      }

      .cls-3 {
        stroke: none;
      }

      .cls-4 {
        fill: none;
      }
    </style>
  </defs>
  <g id="グループ化_7888" data-name="グループ化 7888" transform="translate(-984 -413)">
    <g id="楕円形_88" data-name="楕円形 88" class="cls-1" transform="translate(984 413)">
      <circle class="cls-3" cx="28" cy="28" r="28"/>
      <circle class="cls-4" cx="28" cy="28" r="26.5"/>
    </g>
    <path id="パス_2463" data-name="パス 2463" class="cls-2" d="M-10.919-.248a7.694,7.694,0,0,1-2.609.406A5.309,5.309,0,0,1-16.035-.4a3.8,3.8,0,0,1-1.609-1.581A4.886,4.886,0,0,1-18.2-4.342a5.205,5.205,0,0,1,.622-2.564A4.3,4.3,0,0,1-15.82-8.642,5.425,5.425,0,0,1-13.2-9.255a9.09,9.09,0,0,1,2.285.286v2.533a3.225,3.225,0,0,0-.908-.355,4.537,4.537,0,0,0-1.066-.127,2.387,2.387,0,0,0-1.761.641A2.344,2.344,0,0,0-15.3-4.539a2.3,2.3,0,0,0,.644,1.723,2.355,2.355,0,0,0,1.723.632,4.471,4.471,0,0,0,2.012-.508Zm.766.248V-9.1h2.742v6.957h3.136V0ZM4.888-4.577A5.039,5.039,0,0,1,4.3-2.123,4.209,4.209,0,0,1,2.647-.441a4.735,4.735,0,0,1-2.374.6A4.74,4.74,0,0,1-2.06-.422,4.11,4.11,0,0,1-3.694-2.053a4.809,4.809,0,0,1-.584-2.377,5.246,5.246,0,0,1,.59-2.5A4.194,4.194,0,0,1-2.031-8.649,4.819,4.819,0,0,1,.394-9.255a4.684,4.684,0,0,1,2.339.581A3.96,3.96,0,0,1,4.326-7.017,5.194,5.194,0,0,1,4.888-4.577ZM1.98-4.5a3.16,3.16,0,0,0-.432-1.771A1.348,1.348,0,0,0,.368-6.919,1.493,1.493,0,0,0-.908-6.3a2.928,2.928,0,0,0-.457,1.758A2.894,2.894,0,0,0-.911-2.806a1.448,1.448,0,0,0,1.235.622,1.413,1.413,0,0,0,.857-.279,1.789,1.789,0,0,0,.59-.8A3.309,3.309,0,0,0,1.98-4.5Zm9.868,1.746a2.629,2.629,0,0,1-.486,1.581A2.878,2.878,0,0,1,10-.171a5.988,5.988,0,0,1-2.107.33A6.884,6.884,0,0,1,5.279-.324V-2.818a5.166,5.166,0,0,0,1.263.676,3.716,3.716,0,0,0,1.289.257,1.272,1.272,0,0,0,.7-.162.53.53,0,0,0,.248-.473.641.641,0,0,0-.124-.39,1.215,1.215,0,0,0-.375-.314,6.976,6.976,0,0,0-.93-.4,2.878,2.878,0,0,1-2.2-2.729,2.55,2.55,0,0,1,1-2.111,4.23,4.23,0,0,1,2.691-.79q.476,0,.876.038t.727.1q.327.057.917.216v2.317a4.687,4.687,0,0,0-2.26-.628,1.4,1.4,0,0,0-.736.171.527.527,0,0,0-.279.47.589.589,0,0,0,.225.473,4.225,4.225,0,0,0,.943.486,5.227,5.227,0,0,1,2,1.25A2.385,2.385,0,0,1,11.849-2.755ZM12.309,0V-9.1h5.668v2.146H15.052V-5.63H17.8v2.146H15.052v1.339h3.136V0Z" transform="translate(1012 455)"/>
    <g id="グループ化_8736" data-name="グループ化 8736">
      <g id="グループ化_7216" data-name="グループ化 7216" transform="translate(993 423)">
        <g id="グループ化_7858" data-name="グループ化 7858">
          <path id="パス_2139" data-name="パス 2139" class="cls-2" d="M0,18H3.088L11.852,0H10.558Z"/>
          <path id="パス_2140" data-name="パス 2140" class="cls-2" d="M377.359,17.857H374.27L366,0h1.287Z" transform="translate(-339.359)"/>
          <path id="パス_2141" data-name="パス 2141" class="cls-2" d="M90.017,0H84.77L77.3,18H88.251L90.01.2Z" transform="translate(-71.774)"/>
          <path id="パス_2142" data-name="パス 2142" class="cls-2" d="M284.99,0H279.7l.55,18h11.137Z" transform="translate(-259.336)"/>
          <rect id="長方形_3163" data-name="長方形 3163" class="cls-2" width="7.649" height="2.788" transform="translate(15.179 11.832)"/>
          <rect id="長方形_3164" data-name="長方形 3164" class="cls-2" width="6.219" height="1.93" transform="translate(15.967 5.899)"/>
          <rect id="長方形_3165" data-name="長方形 3165" class="cls-2" width="6.219" height="1.144" transform="translate(15.967 2.287)"/>
        </g>
      </g>
    </g>
  </g>
</svg>
