<svg xmlns="http://www.w3.org/2000/svg" viewBox="0 0 56 56">
  <defs>
    <style>
      .cls-1 {
        fill: #d5651f;
        stroke: #fff;
      }

      .cls-1, .cls-2 {
        stroke-width: 3px;
      }

      .cls-2 {
        fill: #fff;
        stroke: #ea6512;
      }

      .cls-3 {
        fill: #ea6512;
      }

      .cls-4 {
        stroke: none;
      }

      .cls-5 {
        fill: none;
      }
    </style>
  </defs>
  <g id="グループ化_8737" data-name="グループ化 8737" transform="translate(-4291 -413)">
    <path id="合体_13" data-name="合体 13" class="cls-1" d="M5.911,20.571a.951.951,0,0,1-.355-1.3l1.277-2.244-1.75.471a.975.975,0,0,1-.473-1.891l3.569-.945.871-1.532a3.938,3.938,0,0,1-1.011-1.78H6.375L3.547,14.068a.919.919,0,0,1-1.3-1.3l1.419-1.419H.946A1.017,1.017,0,0,1,0,10.4a1.018,1.018,0,0,1,.946-.946H3.429L2.246,8.276a.92.92,0,1,1,1.3-1.3L6.03,9.458h2A3.264,3.264,0,0,1,9.1,7.685l.012-.012L8.179,6.028,4.61,5.083A1.049,1.049,0,0,1,3.9,3.9a1.048,1.048,0,0,1,1.182-.709l1.75.471L5.557,1.418A.953.953,0,0,1,7.212.473L8.5,2.74,8.985.946a1.05,1.05,0,0,1,1.182-.71,1.05,1.05,0,0,1,.71,1.182L9.9,5.2l.843,1.482A3.483,3.483,0,0,1,11.822,6.5a3.808,3.808,0,0,1,.988.13l.913-1.605-.955-3.609A.949.949,0,0,1,13.478.236a.95.95,0,0,1,1.182.71L15.105,2.6,16.315.473a.953.953,0,0,1,1.655.945l-1.253,2.27,1.843-.5a.949.949,0,0,1,1.182.709.921.921,0,0,1-.236.946.618.618,0,0,1-.473.236L15.42,6.04l-.877,1.589A3.94,3.94,0,0,1,15.6,9.458h1.879L20.1,6.739a.92.92,0,1,1,1.3,1.3L19.98,9.458H22.7a1.017,1.017,0,0,1,.945.946,1.674,1.674,0,0,1-.236.709,1,1,0,0,1-.709.236H20.216L21.4,12.531a1.231,1.231,0,0,1,0,1.537.926.926,0,0,1-1.3,0l-2.719-2.719h-1.76a3.263,3.263,0,0,1-1.045,1.745l.891,1.566,3.569.945a1.047,1.047,0,0,1,.709,1.182.614.614,0,0,1-.236.472.919.919,0,0,1-.946.237l-1.75-.471,1.277,2.244a1.034,1.034,0,0,1-.118,1.182.414.414,0,0,1-.237.119.95.95,0,0,1-1.3-.355l-1.291-2.268-.483,1.795a.975.975,0,0,1-1.891-.473l.993-3.75L12.955,14.1a3.511,3.511,0,0,1-1.133.2,3.808,3.808,0,0,1-1.147-.177L9.884,15.52l.993,3.75a.92.92,0,0,1-.237.946.613.613,0,0,1-.473.236.949.949,0,0,1-1.182-.709L8.5,17.949l-1.29,2.267a.41.41,0,0,1-.119.236.916.916,0,0,1-.654.283A.955.955,0,0,1,5.911,20.571Zm5.911-8.157a1.9,1.9,0,0,0,.857-.209.835.835,0,0,1,.206-.145q.049-.025.1-.044a2.045,2.045,0,0,0,.846-1.611,2.072,2.072,0,0,0-2.01-2.01,1.966,1.966,0,0,0-.847.185.133.133,0,0,1-.09.045,2.06,2.06,0,0,0-.482.361A1.959,1.959,0,0,0,9.812,10.4a2.045,2.045,0,0,0,.846,1.611q.051.02.1.044a.835.835,0,0,1,.207.146A1.9,1.9,0,0,0,11.822,12.414Z" transform="translate(4301.2 427.688)"/>
    <g id="グループ化_7887" data-name="グループ化 7887" transform="translate(3367)">
      <g id="楕円形_88" data-name="楕円形 88" class="cls-2" transform="translate(924 413)">
        <circle class="cls-4" cx="28" cy="28" r="28"/>
        <circle class="cls-5" cx="28" cy="28" r="26.5"/>
      </g>
      <path id="交差_8" data-name="交差 8" class="cls-2" d="M-7584.088-1479.766a4.023,4.023,0,0,1,1.92-3.448l27.858-15.359a26.619,26.619,0,0,1,2.222,10.681,26.609,26.609,0,0,1-2.242,10.725l-29.758,6.594Z" transform="translate(8530.088 1929.573)"/>
      <path id="合体_14" data-name="合体 14" class="cls-3" d="M6,21.826a1.034,1.034,0,0,1-.36-1.38l1.3-2.381-1.776.5a.961.961,0,0,1-1.2-.752,1.011,1.011,0,0,1,.72-1.254l3.623-1,.885-1.625a4.229,4.229,0,0,1-1.026-1.888H6.471L3.6,14.926a.912.912,0,0,1-1.32,0,1.016,1.016,0,0,1,0-1.379L3.72,12.041H.96a1,1,0,0,1,0-2.007H3.48L2.28,8.78a1.017,1.017,0,0,1,0-1.38.913.913,0,0,1,1.32,0l2.52,2.634H8.146A3.494,3.494,0,0,1,9.24,8.154l.012-.012L8.3,6.4l-3.622-1a1.118,1.118,0,0,1-.72-1.254,1.06,1.06,0,0,1,1.2-.752l1.777.5L5.64,1.5A1.033,1.033,0,0,1,6,.126.943.943,0,0,1,7.32.5L8.63,2.907,9.12,1A1.063,1.063,0,0,1,10.32.25,1.12,1.12,0,0,1,11.041,1.5l-.988,4.016.856,1.573A3.4,3.4,0,0,1,12,6.9a3.708,3.708,0,0,1,1,.138l.927-1.7L12.96,1.5A1.011,1.011,0,0,1,13.68.25.962.962,0,0,1,14.88,1l.452,1.754L16.56.5a.943.943,0,0,1,1.32-.376,1.034,1.034,0,0,1,.36,1.379L16.969,3.913l1.871-.527a.961.961,0,0,1,1.2.752,1.007,1.007,0,0,1-.24,1,.619.619,0,0,1-.48.25L15.652,6.408l-.89,1.686a4.227,4.227,0,0,1,1.076,1.941h1.908L20.4,7.15a.913.913,0,0,1,1.32,0,1.017,1.017,0,0,1,0,1.38l-1.44,1.5h2.76a1.056,1.056,0,0,1,.959,1,1.832,1.832,0,0,1-.24.752.987.987,0,0,1-.72.25H20.52l1.2,1.254a1.353,1.353,0,0,1,0,1.631.912.912,0,0,1-1.32,0l-2.76-2.885H15.854a3.5,3.5,0,0,1-1.061,1.852l.9,1.662,3.623,1a1.117,1.117,0,0,1,.72,1.254.661.661,0,0,1-.24.5.905.905,0,0,1-.96.252l-1.776-.5,1.3,2.381a1.135,1.135,0,0,1-.119,1.254.415.415,0,0,1-.241.126.943.943,0,0,1-1.319-.376l-1.31-2.406-.491,1.9a1.06,1.06,0,0,1-1.2.752,1.117,1.117,0,0,1-.72-1.254l1.008-3.979-.818-1.5a3.426,3.426,0,0,1-1.15.214,3.712,3.712,0,0,1-1.164-.188l-.8,1.477,1.008,3.979a1.007,1.007,0,0,1-.241,1,.614.614,0,0,1-.48.25.961.961,0,0,1-1.2-.752l-.49-1.9L7.32,21.449a.441.441,0,0,1-.12.25.91.91,0,0,1-.664.3A.941.941,0,0,1,6,21.826Zm6-8.655a1.864,1.864,0,0,0,.87-.222.848.848,0,0,1,.21-.154q.05-.026.1-.047a2.2,2.2,0,0,0,.859-1.71A2.152,2.152,0,0,0,12,8.906a1.923,1.923,0,0,0-.859.2.133.133,0,0,1-.091.048,2.1,2.1,0,0,0-.489.383,2.126,2.126,0,0,0-.6,1.506,2.2,2.2,0,0,0,.859,1.71q.051.021.1.047a.848.848,0,0,1,.21.155A1.864,1.864,0,0,0,12,13.171Z" transform="translate(933 422)"/>
    </g>
  </g>
</svg>
