<svg xmlns="http://www.w3.org/2000/svg" xmlns:xlink="http://www.w3.org/1999/xlink" viewBox="0 0 54 54">
  <defs>
    <clipPath id="clip-Icon_Level2_余白あり_50x50_">
      <rect width="54" height="54"/>
    </clipPath>
  </defs>
  <g id="Icon_Level2_余白あり_50x50_" data-name="Icon_Level2_余白あり(50x50)" clip-path="url(#clip-Icon_Level2_余白あり_50x50_)">
    <g id="グループ_11363" data-name="グループ 11363" transform="translate(2 2)">
      <g id="グループ_11196" data-name="グループ 11196" transform="translate(0 0)">
        <path id="パス_3313" data-name="パス 3313" d="M.926,1.071A4.709,4.709,0,0,1,3.385,0H46.872a5.317,5.317,0,0,1,2.2,1.114A4.221,4.221,0,0,1,50,3.129V46.588a3.2,3.2,0,0,1-.8,2.179A4.252,4.252,0,0,1,46.713,50H3.5a4.884,4.884,0,0,1-2.43-.926A3.83,3.83,0,0,1,0,46.724V3.356A3.7,3.7,0,0,1,.926,1.071Z" transform="translate(0 0)" fill="#fff"/>
        <path id="パス_3310" data-name="パス 3310" d="M50,18.517H0V3.366A3.513,3.513,0,0,1,3.636,0H46.36A3.513,3.513,0,0,1,50,3.366v15.15Z" transform="translate(0 0)" fill="#e0b917"/>
        <path id="パス_3300" data-name="パス 3300" d="M-2.459-21.67V-1.556H-5.852V-21.67Zm7.443,0V-1.556H1.592V-21.67Z" transform="translate(25.295 45.122)" fill="#222"/>
        <path id="パス_3306" data-name="パス 3306" d="M-10.361-.823h-5.045v-9.724h1.139v8.694h3.906Zm6.924-3.194h-4.9a2.6,2.6,0,0,0,.624,1.79A2.151,2.151,0,0,0-6.076-1.6a3.412,3.412,0,0,0,2.156-.773v1.044A4.03,4.03,0,0,1-6.34-.66a2.935,2.935,0,0,1-2.312-.946,3.872,3.872,0,0,1-.841-2.662,3.8,3.8,0,0,1,.919-2.641A2.946,2.946,0,0,1-6.293-7.93a2.611,2.611,0,0,1,2.109.882A3.675,3.675,0,0,1-3.438-4.6ZM-4.577-4.96a2.263,2.263,0,0,0-.465-1.5,1.583,1.583,0,0,0-1.271-.536,1.8,1.8,0,0,0-1.336.563A2.554,2.554,0,0,0-8.327-4.96ZM3.7-7.767.936-.823H-.156L-2.787-7.767h1.221L.2-2.722a4.528,4.528,0,0,1,.244.97H.468a4.585,4.585,0,0,1,.217-.943L2.53-7.767Zm6.774,3.75h-4.9A2.6,2.6,0,0,0,6.2-2.227,2.151,2.151,0,0,0,7.84-1.6,3.412,3.412,0,0,0,10-2.369v1.044A4.03,4.03,0,0,1,7.575-.66a2.935,2.935,0,0,1-2.312-.946,3.872,3.872,0,0,1-.841-2.662,3.8,3.8,0,0,1,.919-2.641A2.946,2.946,0,0,1,7.623-7.93a2.611,2.611,0,0,1,2.109.882A3.675,3.675,0,0,1,10.477-4.6ZM9.338-4.96a2.263,2.263,0,0,0-.465-1.5A1.583,1.583,0,0,0,7.6-6.994a1.8,1.8,0,0,0-1.336.563A2.554,2.554,0,0,0,5.588-4.96ZM13.271-.823H12.159V-11.1h1.112Z" transform="translate(26.054 15.637)" fill="#fff" stroke="#fff" stroke-width="0.5"/>
      </g>
    </g>
  </g>
</svg>
