<svg xmlns="http://www.w3.org/2000/svg" viewBox="0 0 56 56">
  <defs>
    <style>
      .cls-1 {
        fill: #fff;
        stroke-width: 3px;
      }

      .cls-1, .cls-2, .cls-3 {
        stroke: #e0b917;
      }

      .cls-2, .cls-3, .cls-6 {
        fill: none;
      }

      .cls-2, .cls-3 {
        stroke-miterlimit: 10;
        stroke-width: 2px;
      }

      .cls-3 {
        stroke-linejoin: round;
      }

      .cls-4 {
        fill: #222;
      }

      .cls-5 {
        stroke: none;
      }
    </style>
  </defs>
  <g id="グループ化_8741" data-name="グループ化 8741" transform="translate(-4411 -269)">
    <g id="グループ化_8735" data-name="グループ化 8735" transform="translate(-122 10)">
      <g id="楕円形_113" data-name="楕円形 113" class="cls-1" transform="translate(4533 259)">
        <circle class="cls-5" cx="28" cy="28" r="28"/>
        <circle class="cls-6" cx="28" cy="28" r="26.5"/>
      </g>
      <g id="グループ化_8725" data-name="グループ化 8725" transform="translate(4538 272)">
        <path id="パス_2103" data-name="パス 2103" class="cls-2" d="M21.087,17.216h3.652a4.2,4.2,0,1,0,0-8.409,4.38,4.38,0,0,0-1.278.18,3.132,3.132,0,0,0,.061-.781A4.207,4.207,0,0,0,19.261,4a4.337,4.337,0,0,0-2.8,1.021A6,6,0,0,0,10.739,1,6.065,6.065,0,0,0,4.652,7.006a5.594,5.594,0,0,0,.3,1.8,4.208,4.208,0,0,0,.3,8.409H8.913" transform="translate(0 0)"/>
        <path id="パス_2104" data-name="パス 2104" class="cls-2" d="M7.5,14h.3a4.015,4.015,0,0,1,2.215.659" transform="translate(-2.608 -5.2)"/>
        <path id="パス_2105" data-name="パス 2105" class="cls-2" d="M26.4,7.7a5.126,5.126,0,0,1,.3,1.377" transform="translate(-9.936 -2.679)"/>
        <path id="パス_2106" data-name="パス 2106" class="cls-2" d="M37.539,14.3A5.492,5.492,0,0,1,37,15.677" transform="translate(-14.08 -5.319)"/>
        <path id="パス_2107" data-name="パス 2107" class="cls-3" d="M20.73,22.927,23.784,17l-4.969,1.377L16,25.562l2.814-.479L16.958,31.37l8.023-8.921Z" transform="translate(-5.797 -6.37)"/>
      </g>
    </g>
    <path id="パス_2469" data-name="パス 2469" class="cls-4" d="M-1.172,0V-12.094a7.374,7.374,0,0,1-1.7.732,11.706,11.706,0,0,1-1.992.369v-3.75a13.163,13.163,0,0,0,2.947-.85A15.209,15.209,0,0,0,.879-17.18H3.82V0Z" transform="translate(4452 310)"/>
  </g>
</svg>
