<svg xmlns="http://www.w3.org/2000/svg" viewBox="0 0 56 56">
  <defs>
    <style>
      .cls-1 {
        fill: #fff;
      }

      .cls-2, .cls-4 {
        fill: #a1d03c;
      }

      .cls-3, .cls-4 {
        stroke: none;
      }
    </style>
  </defs>
  <g id="グループ化_8727" data-name="グループ化 8727" transform="translate(-4351 -193)">
    <g id="パス_2128" data-name="パス 2128" class="cls-1" transform="translate(4351 193)">
      <path class="cls-3" d="M 28 54.5 C 24.42185974121094 54.5 20.9515495300293 53.7995491027832 17.68547058105469 52.41810989379883 C 14.53003978729248 51.08348083496094 11.6958703994751 49.17253112792969 9.261670112609863 46.73833084106445 C 6.827469825744629 44.30413055419922 4.916520118713379 41.4699592590332 3.581890106201172 38.31452941894531 C 2.20044994354248 35.0484504699707 1.5 31.57814025878906 1.5 28 C 1.5 24.42185974121094 2.20044994354248 20.9515495300293 3.581890106201172 17.68547058105469 C 4.916520118713379 14.53003978729248 6.827469825744629 11.6958703994751 9.261670112609863 9.261670112609863 C 11.6958703994751 6.827469825744629 14.53003978729248 4.916520118713379 17.68547058105469 3.581890106201172 C 20.9515495300293 2.20044994354248 24.42185974121094 1.5 28 1.5 C 31.57814025878906 1.5 35.0484504699707 2.20044994354248 38.31452941894531 3.581890106201172 C 41.4699592590332 4.916520118713379 44.30413055419922 6.827469825744629 46.73833084106445 9.261670112609863 C 49.17253112792969 11.6958703994751 51.08348083496094 14.53003978729248 52.41810989379883 17.68547058105469 C 53.7995491027832 20.9515495300293 54.5 24.42185974121094 54.5 28 C 54.5 31.57814025878906 53.7995491027832 35.0484504699707 52.41810989379883 38.31452941894531 C 51.08348083496094 41.4699592590332 49.17253112792969 44.30413055419922 46.73833084106445 46.73833084106445 C 44.30413055419922 49.17253112792969 41.4699592590332 51.08348083496094 38.31452941894531 52.41810989379883 C 35.0484504699707 53.7995491027832 31.57814025878906 54.5 28 54.5 Z"/>
      <path class="cls-4" d="M 28 3 C 24.62369918823242 3 21.34999084472656 3.660579681396484 18.26979064941406 4.963390350341797 C 15.29317092895508 6.222400665283203 12.61925888061523 8.025409698486328 10.32233047485352 10.32233047485352 C 8.025409698486328 12.61925888061523 6.222400665283203 15.29317092895508 4.963390350341797 18.26979064941406 C 3.660579681396484 21.34999084472656 3 24.62369918823242 3 28 C 3 31.37630081176758 3.660579681396484 34.65000915527344 4.963390350341797 37.73020935058594 C 6.222400665283203 40.70682907104492 8.025409698486328 43.38074111938477 10.32233047485352 45.67766952514648 C 12.61925888061523 47.97459030151367 15.29317092895508 49.7775993347168 18.26979064941406 51.0366096496582 C 21.34999084472656 52.33942031860352 24.62369918823242 53 28 53 C 31.37630081176758 53 34.65000915527344 52.33942031860352 37.73020935058594 51.0366096496582 C 40.70682907104492 49.7775993347168 43.38074111938477 47.97459030151367 45.67766952514648 45.67766952514648 C 47.97459030151367 43.38074111938477 49.7775993347168 40.70682907104492 51.0366096496582 37.73020935058594 C 52.33942031860352 34.65000915527344 53 31.37630081176758 53 28 C 53 24.62369918823242 52.33942031860352 21.34999084472656 51.0366096496582 18.26979064941406 C 49.7775993347168 15.29317092895508 47.97459030151367 12.61925888061523 45.67766952514648 10.32233047485352 C 43.38074111938477 8.025409698486328 40.70682907104492 6.222400665283203 37.73020935058594 4.963390350341797 C 34.65000915527344 3.660579681396484 31.37630081176758 3 28 3 M 28 0 C 43.46397018432617 0 56 12.53602981567383 56 28 C 56 43.46397018432617 43.46397018432617 56 28 56 C 12.53602981567383 56 0 43.46397018432617 0 28 C 0 12.53602981567383 12.53602981567383 0 28 0 Z"/>
    </g>
    <g id="wind_1_" transform="translate(4363 210)">
      <path id="パス_1874" data-name="パス 1874" class="cls-2" d="M24.64,13.289H1.28A1.289,1.289,0,0,1,0,12.077,1.18,1.18,0,0,1,1.28,11H24.64c2.56,0,4.64-1.751,4.64-3.905S27.2,3.189,24.64,3.189,20,4.94,20,7.095a5.792,5.792,0,0,0,.32,1.616,1.061,1.061,0,0,1-.64,1.481,1.465,1.465,0,0,1-1.76-.539,4.746,4.746,0,0,1-.64-2.559C17.28,3.728,20.48.9,24.64.9S32,3.728,32,7.095,28.8,13.289,24.64,13.289Z" transform="translate(0 0.312)"/>
      <path id="パス_1875" data-name="パス 1875" class="cls-2" d="M19.644,20.7c-3.118,0-5.768-2.289-5.768-4.983a2.3,2.3,0,0,1,.156-1.077,1.415,1.415,0,0,1,1.559-.808,1.191,1.191,0,0,1,.935,1.347,5.141,5.141,0,0,0-.156.673,2.938,2.938,0,0,0,3.118,2.693,2.938,2.938,0,0,0,3.118-2.693,2.938,2.938,0,0,0-3.118-2.693H1.247A1.151,1.151,0,0,1,0,12.077,1.159,1.159,0,0,1,1.247,11h18.24c3.118,0,5.768,2.289,5.768,4.983S22.762,20.7,19.644,20.7Z" transform="translate(0 5.304)"/>
      <path id="パス_1876" data-name="パス 1876" class="cls-2" d="M1.247,9.965A1.159,1.159,0,0,1,0,8.888,1.159,1.159,0,0,1,1.247,7.811H9.822A2.938,2.938,0,0,0,12.94,5.117,2.938,2.938,0,0,0,9.822,2.424,2.938,2.938,0,0,0,6.7,5.117a1.075,1.075,0,0,0,.156.673,1.191,1.191,0,0,1-.935,1.347,1.781,1.781,0,0,1-1.715-.943,3.247,3.247,0,0,1-.156-1.212C4.053,2.289,6.7,0,9.822,0S15.59,2.289,15.59,4.983,12.94,9.965,9.822,9.965Z"/>
    </g>
  </g>
</svg>
