<svg xmlns="http://www.w3.org/2000/svg" viewBox="0 0 56 56">
  <defs>
    <style>
      .cls-1 {
        fill: #fff;
      }

      .cls-2, .cls-3 {
        fill: none;
        stroke: #d01b60;
        stroke-miterlimit: 10;
        stroke-width: 2px;
      }

      .cls-3 {
        stroke-linejoin: round;
      }

      .cls-4 {
        fill: #222;
      }

      .cls-5, .cls-6 {
        stroke: none;
      }

      .cls-6 {
        fill: #d01b60;
      }
    </style>
  </defs>
  <g id="グループ化_8740" data-name="グループ化 8740" transform="translate(-4471 -269)">
    <g id="グループ化_8734" data-name="グループ化 8734" transform="translate(23 10)">
      <g id="パス_2449" data-name="パス 2449" class="cls-1" transform="translate(4448 259)">
        <path class="cls-5" d="M 28 54.5 C 24.42185974121094 54.5 20.9515495300293 53.7995491027832 17.68547058105469 52.41810989379883 C 14.53003978729248 51.08348083496094 11.6958703994751 49.17253112792969 9.261670112609863 46.73833084106445 C 6.827469825744629 44.30413055419922 4.916520118713379 41.4699592590332 3.581890106201172 38.31452941894531 C 2.20044994354248 35.0484504699707 1.5 31.57814025878906 1.5 28 C 1.5 24.42185974121094 2.20044994354248 20.9515495300293 3.581890106201172 17.68547058105469 C 4.916520118713379 14.53003978729248 6.827469825744629 11.6958703994751 9.261670112609863 9.261670112609863 C 11.6958703994751 6.827469825744629 14.53003978729248 4.916520118713379 17.68547058105469 3.581890106201172 C 20.9515495300293 2.20044994354248 24.42185974121094 1.5 28 1.5 C 31.57814025878906 1.5 35.0484504699707 2.20044994354248 38.31452941894531 3.581890106201172 C 41.4699592590332 4.916520118713379 44.30413055419922 6.827469825744629 46.73833084106445 9.261670112609863 C 49.17253112792969 11.6958703994751 51.08348083496094 14.53003978729248 52.41810989379883 17.68547058105469 C 53.7995491027832 20.9515495300293 54.5 24.42185974121094 54.5 28 C 54.5 31.57814025878906 53.7995491027832 35.0484504699707 52.41810989379883 38.31452941894531 C 51.08348083496094 41.4699592590332 49.17253112792969 44.30413055419922 46.73833084106445 46.73833084106445 C 44.30413055419922 49.17253112792969 41.4699592590332 51.08348083496094 38.31452941894531 52.41810989379883 C 35.0484504699707 53.7995491027832 31.57814025878906 54.5 28 54.5 Z"/>
        <path class="cls-6" d="M 28 3 C 24.62369918823242 3 21.34999084472656 3.660579681396484 18.26979064941406 4.963390350341797 C 15.29317092895508 6.222400665283203 12.61925888061523 8.025409698486328 10.32233047485352 10.32233047485352 C 8.025409698486328 12.61925888061523 6.222400665283203 15.29317092895508 4.963390350341797 18.26979064941406 C 3.660579681396484 21.34999084472656 3 24.62369918823242 3 28 C 3 31.37630081176758 3.660579681396484 34.65000915527344 4.963390350341797 37.73020935058594 C 6.222400665283203 40.70682907104492 8.025409698486328 43.38074111938477 10.32233047485352 45.67766952514648 C 12.61925888061523 47.97459030151367 15.29317092895508 49.7775993347168 18.26979064941406 51.0366096496582 C 21.34999084472656 52.33942031860352 24.62369918823242 53 28 53 C 31.37630081176758 53 34.65000915527344 52.33942031860352 37.73020935058594 51.0366096496582 C 40.70682907104492 49.7775993347168 43.38074111938477 47.97459030151367 45.67766952514648 45.67766952514648 C 47.97459030151367 43.38074111938477 49.7775993347168 40.70682907104492 51.0366096496582 37.73020935058594 C 52.33942031860352 34.65000915527344 53 31.37630081176758 53 28 C 53 24.62369918823242 52.33942031860352 21.34999084472656 51.0366096496582 18.26979064941406 C 49.7775993347168 15.29317092895508 47.97459030151367 12.61925888061523 45.67766952514648 10.32233047485352 C 43.38074111938477 8.025409698486328 40.70682907104492 6.222400665283203 37.73020935058594 4.963390350341797 C 34.65000915527344 3.660579681396484 31.37630081176758 3 28 3 M 28 0 C 43.46397018432617 0 56 12.53602981567383 56 28 C 56 43.46397018432617 43.46397018432617 56 28 56 C 12.53602981567383 56 0 43.46397018432617 0 28 C 0 12.53602981567383 12.53602981567383 0 28 0 Z"/>
      </g>
      <g id="グループ化_8733" data-name="グループ化 8733" transform="translate(4453 272)">
        <path id="パス_2103" data-name="パス 2103" class="cls-2" d="M21.087,17.216h3.652a4.2,4.2,0,1,0,0-8.409,4.38,4.38,0,0,0-1.278.18,3.132,3.132,0,0,0,.061-.781A4.207,4.207,0,0,0,19.261,4a4.337,4.337,0,0,0-2.8,1.021A6,6,0,0,0,10.739,1,6.065,6.065,0,0,0,4.652,7.006a5.594,5.594,0,0,0,.3,1.8,4.208,4.208,0,0,0,.3,8.409H8.913" transform="translate(0 0)"/>
        <path id="パス_2104" data-name="パス 2104" class="cls-2" d="M7.5,14h.3a4.015,4.015,0,0,1,2.215.659" transform="translate(-2.608 -5.2)"/>
        <path id="パス_2105" data-name="パス 2105" class="cls-2" d="M26.4,7.7a5.126,5.126,0,0,1,.3,1.377" transform="translate(-9.936 -2.679)"/>
        <path id="パス_2106" data-name="パス 2106" class="cls-2" d="M37.539,14.3A5.492,5.492,0,0,1,37,15.677" transform="translate(-14.08 -5.319)"/>
        <path id="パス_2107" data-name="パス 2107" class="cls-3" d="M20.73,22.927,23.784,17l-4.969,1.377L16,25.562l2.814-.479L16.958,31.37l8.023-8.921Z" transform="translate(-5.797 -6.37)"/>
      </g>
    </g>
    <path id="パス_2470" data-name="パス 2470" class="cls-4" d="M-6.135,0V-1.348a7.875,7.875,0,0,1,.352-2.484,6.241,6.241,0,0,1,1.107-1.98A17.06,17.06,0,0,1-2.045-8.191,19.509,19.509,0,0,0-.27-9.709a3.8,3.8,0,0,0,.656-.9A2.067,2.067,0,0,0,.6-11.543q0-1.676-2.016-1.676A6.049,6.049,0,0,0-5.291-11.73v-4.09a11.3,11.3,0,0,1,2.607-.973,11.445,11.445,0,0,1,2.49-.27,6.276,6.276,0,0,1,4.242,1.3,4.6,4.6,0,0,1,1.5,3.668,5.736,5.736,0,0,1-.785,3.082A9.3,9.3,0,0,1,1.846-6.375,19.306,19.306,0,0,0-.316-4.834a1.37,1.37,0,0,0-.545.826H5.7V0Z" transform="translate(4511 310)"/>
  </g>
</svg>
