<svg xmlns="http://www.w3.org/2000/svg" viewBox="0 0 56 56">
  <defs>
    <style>
      .cls-1, .cls-3 {
        fill: #fff;
      }

      .cls-1 {
        stroke: #999;
        stroke-width: 3px;
      }

      .cls-2 {
        fill: #999;
      }

      .cls-4 {
        fill: #222;
        stroke: rgba(0,0,0,0);
      }

      .cls-5 {
        stroke: none;
      }

      .cls-6 {
        fill: none;
      }
    </style>
  </defs>
  <g id="グループ化_8726" data-name="グループ化 8726" transform="translate(-4291 -193)">
    <g id="楕円形_105" data-name="楕円形 105" class="cls-1" transform="translate(4291 193)">
      <circle class="cls-5" cx="28" cy="28" r="28"/>
      <circle class="cls-6" cx="28" cy="28" r="26.5"/>
    </g>
    <g id="wind_1_" transform="translate(4293 208)">
      <path id="パス_1874" data-name="パス 1874" class="cls-2" d="M24.64,13.836H1.28A1.315,1.315,0,0,1,0,12.57a1.2,1.2,0,0,1,1.28-1.125H24.64a4.389,4.389,0,0,0,4.64-4.078A4.389,4.389,0,0,0,24.64,3.29,4.389,4.389,0,0,0,20,7.368a6.282,6.282,0,0,0,.32,1.687,1.124,1.124,0,0,1-.64,1.547,1.432,1.432,0,0,1-1.76-.562,5.129,5.129,0,0,1-.64-2.672C17.28,3.853,20.48.9,24.64.9S32,3.853,32,7.368,28.8,13.836,24.64,13.836Z" transform="translate(0 0.365)"/>
      <path id="パス_1875" data-name="パス 1875" class="cls-2" d="M20.51,21.124c-3.256,0-6.023-2.39-6.023-5.2A2.4,2.4,0,0,1,14.65,14.8a1.477,1.477,0,0,1,1.628-.844,1.243,1.243,0,0,1,.977,1.406,5.368,5.368,0,0,0-.163.7,3.067,3.067,0,0,0,3.256,2.812A3.067,3.067,0,0,0,23.6,16.062a3.067,3.067,0,0,0-3.256-2.812H1.3A1.2,1.2,0,0,1,0,12.125,1.21,1.21,0,0,1,1.3,11H20.347c3.256,0,6.023,2.39,6.023,5.2S23.766,21.124,20.51,21.124Z" transform="translate(0 4.876)"/>
      <path id="パス_1876" data-name="パス 1876" class="cls-2" d="M1.3,10.4A1.21,1.21,0,0,1,0,9.28,1.21,1.21,0,0,1,1.3,8.155h8.953a3.067,3.067,0,0,0,3.256-2.812,3.067,3.067,0,0,0-3.256-2.812A3.067,3.067,0,0,0,7,5.343a1.123,1.123,0,0,0,.163.7,1.243,1.243,0,0,1-.977,1.406A1.859,1.859,0,0,1,4.4,6.468,3.391,3.391,0,0,1,4.232,5.2C4.232,2.39,7,0,10.255,0s6.023,2.39,6.023,5.2-2.767,5.2-6.023,5.2Z"/>
    </g>
    <g id="グループ化_8721" data-name="グループ化 8721" transform="translate(-1 1)">
      <rect id="長方形_5183" data-name="長方形 5183" class="cls-3" width="26" height="11" rx="5.5" transform="translate(4314 224)"/>
      <path id="パス_2462" data-name="パス 2462" class="cls-4" d="M-5.221-.248A7.694,7.694,0,0,1-7.83.159,5.309,5.309,0,0,1-10.337-.4a3.8,3.8,0,0,1-1.609-1.581A4.886,4.886,0,0,1-12.5-4.342a5.205,5.205,0,0,1,.622-2.564,4.3,4.3,0,0,1,1.758-1.736,5.425,5.425,0,0,1,2.615-.613,9.09,9.09,0,0,1,2.285.286v2.533a3.225,3.225,0,0,0-.908-.355A4.537,4.537,0,0,0-7.2-6.919a2.387,2.387,0,0,0-1.761.641A2.344,2.344,0,0,0-9.6-4.539a2.3,2.3,0,0,0,.644,1.723,2.355,2.355,0,0,0,1.723.632,4.471,4.471,0,0,0,2.012-.508ZM2.555,0-.657-4.393a10.469,10.469,0,0,1-.622-.939H-1.3q.038.673.038,1.511V0H-3.805V-9.1h2.59L1.863-4.926q.057.083.14.2t.165.235q.083.121.156.235a1.445,1.445,0,0,1,.111.2H2.46a8.25,8.25,0,0,1-.038-.965V-9.1H4.961V0Zm4.2,0V-9.1H9.493v6.957h3.136V0Z" transform="translate(4327 234)"/>
    </g>
  </g>
</svg>
