<svg xmlns="http://www.w3.org/2000/svg" xmlns:xlink="http://www.w3.org/1999/xlink" viewBox="0 0 60 60">
  <defs>
    <clipPath id="clip-icon_issue_LVP_LVPD">
      <rect width="60" height="60"/>
    </clipPath>
  </defs>
  <g id="icon_issue_LVP_LVPD" clip-path="url(#clip-icon_issue_LVP_LVPD)">
    <g id="グループ_11226" data-name="グループ 11226">
      <g id="グループ_11218" data-name="グループ 11218" transform="translate(-2974 3531)">
        <circle id="楕円形_115" data-name="楕円形 115" cx="30" cy="30" r="30" transform="translate(2974 -3531)" fill="#ea6512"/>
        <path id="パス_3314" data-name="パス 3314" d="M27,0A27,27,0,1,1,0,27,27,27,0,0,1,27,0Z" transform="translate(2977 -3528)" fill="#fff"/>
      </g>
    </g>
    <path id="パス_3459" data-name="パス 3459" d="M-20.188,0V-12.6h3.8v9.633h4.342V0ZM-3.27,0H-7.532L-11.6-12.6h4.087L-5.59-4.843a8.676,8.676,0,0,1,.255,1.406h.088A9.7,9.7,0,0,1-4.975-4.9L-3.1-12.6H.853ZM12.489-8.446a4.1,4.1,0,0,1-.655,2.294A4.267,4.267,0,0,1,9.967-4.6a6.78,6.78,0,0,1-2.821.549H5.985V0h-3.8V-12.6H7.356a6.119,6.119,0,0,1,3.9,1.011A3.83,3.83,0,0,1,12.489-8.446Zm-4.017.132a1.477,1.477,0,0,0-.448-1.169,1.937,1.937,0,0,0-1.318-.4H5.985v3.111h.853Q8.473-6.768,8.473-8.314ZM15.27,0H12l5.39-12.6h3.29ZM-22.68,16V3.4h3.8v9.633h4.342V16Zm16.919,0h-4.263L-14.093,3.4h4.087l1.925,7.761a8.676,8.676,0,0,1,.255,1.406h.088A9.7,9.7,0,0,1-7.466,11.1L-5.594,3.4h3.955ZM10,7.554a4.1,4.1,0,0,1-.655,2.294A4.267,4.267,0,0,1,7.475,11.4a6.78,6.78,0,0,1-2.821.549H3.494V16H-.3V3.4H4.865a6.119,6.119,0,0,1,3.9,1.011A3.83,3.83,0,0,1,10,7.554Zm-4.017.132a1.477,1.477,0,0,0-.448-1.169,1.937,1.937,0,0,0-1.318-.4H3.494V9.232h.853Q5.981,9.232,5.981,7.686Zm17.4,1.854a6.954,6.954,0,0,1-.8,3.388,5.542,5.542,0,0,1-2.3,2.272,7.189,7.189,0,0,1-3.445.8H11.5V3.4h5.221Q23.383,3.4,23.383,9.54Zm-4.034.035a3.627,3.627,0,0,0-.374-1.661,2.7,2.7,0,0,0-1.068-1.143,3.191,3.191,0,0,0-1.635-.4H15.3v6.662h1.063a2.736,2.736,0,0,0,2.175-.936A3.707,3.707,0,0,0,19.349,9.575Z" transform="translate(30.68 27.604)" fill="#ea6512"/>
  </g>
</svg>
