<svg xmlns="http://www.w3.org/2000/svg" viewBox="0 0 56 56">
  <defs>
    <style>
      .cls-1 {
        fill: #fff;
        stroke: #e0b917;
        stroke-width: 3px;
      }

      .cls-2 {
        fill: #e0b917;
      }

      .cls-3 {
        fill: #222;
      }

      .cls-4 {
        stroke: none;
      }

      .cls-5 {
        fill: none;
      }
    </style>
  </defs>
  <g id="グループ化_8738" data-name="グループ化 8738" transform="translate(-4411 -193)">
    <g id="楕円形_103" data-name="楕円形 103" class="cls-1" transform="translate(4411 193)">
      <circle class="cls-4" cx="28" cy="28" r="28"/>
      <circle class="cls-5" cx="28" cy="28" r="26.5"/>
    </g>
    <g id="wind_1_" transform="translate(4413 208)">
      <path id="パス_1874" data-name="パス 1874" class="cls-2" d="M24.64,13.836H1.28A1.315,1.315,0,0,1,0,12.57a1.2,1.2,0,0,1,1.28-1.125H24.64a4.389,4.389,0,0,0,4.64-4.078A4.389,4.389,0,0,0,24.64,3.29,4.389,4.389,0,0,0,20,7.368a6.282,6.282,0,0,0,.32,1.687,1.124,1.124,0,0,1-.64,1.547,1.432,1.432,0,0,1-1.76-.562,5.129,5.129,0,0,1-.64-2.672C17.28,3.853,20.48.9,24.64.9S32,3.853,32,7.368,28.8,13.836,24.64,13.836Z" transform="translate(0 0.365)"/>
      <path id="パス_1875" data-name="パス 1875" class="cls-2" d="M20.51,21.124c-3.256,0-6.023-2.39-6.023-5.2A2.4,2.4,0,0,1,14.65,14.8a1.477,1.477,0,0,1,1.628-.844,1.243,1.243,0,0,1,.977,1.406,5.368,5.368,0,0,0-.163.7,3.067,3.067,0,0,0,3.256,2.812A3.067,3.067,0,0,0,23.6,16.062a3.067,3.067,0,0,0-3.256-2.812H1.3A1.2,1.2,0,0,1,0,12.125,1.21,1.21,0,0,1,1.3,11H20.347c3.256,0,6.023,2.39,6.023,5.2S23.766,21.124,20.51,21.124Z" transform="translate(0 4.876)"/>
      <path id="パス_1876" data-name="パス 1876" class="cls-2" d="M1.3,10.4A1.21,1.21,0,0,1,0,9.28,1.21,1.21,0,0,1,1.3,8.155h8.953a3.067,3.067,0,0,0,3.256-2.812,3.067,3.067,0,0,0-3.256-2.812A3.067,3.067,0,0,0,7,5.343a1.123,1.123,0,0,0,.163.7,1.243,1.243,0,0,1-.977,1.406A1.859,1.859,0,0,1,4.4,6.468,3.391,3.391,0,0,1,4.232,5.2C4.232,2.39,7,0,10.255,0s6.023,2.39,6.023,5.2-2.767,5.2-6.023,5.2Z"/>
    </g>
    <path id="パス_2466" data-name="パス 2466" class="cls-3" d="M-1.172,0V-12.094a7.374,7.374,0,0,1-1.7.732,11.706,11.706,0,0,1-1.992.369v-3.75a13.163,13.163,0,0,0,2.947-.85A15.209,15.209,0,0,0,.879-17.18H3.82V0Z" transform="translate(4451 234)"/>
  </g>
</svg>
