<svg xmlns="http://www.w3.org/2000/svg" viewBox="0 0 56 56">
  <defs>
    <style>
      .cls-1, .cls-4 {
        fill: #fff;
      }

      .cls-1, .cls-2, .cls-3 {
        stroke: #999;
      }

      .cls-1 {
        stroke-width: 3px;
      }

      .cls-2, .cls-3, .cls-7 {
        fill: none;
      }

      .cls-2, .cls-3 {
        stroke-miterlimit: 10;
        stroke-width: 2px;
      }

      .cls-3 {
        stroke-linejoin: round;
      }

      .cls-5 {
        fill: #222;
        stroke: rgba(0,0,0,0);
      }

      .cls-6 {
        stroke: none;
      }
    </style>
  </defs>
  <g id="グループ化_8732" data-name="グループ化 8732" transform="translate(-4291 -301)">
    <g id="楕円形_96" data-name="楕円形 96" class="cls-1" transform="translate(4291 301)">
      <circle class="cls-6" cx="28" cy="28" r="28"/>
      <circle class="cls-7" cx="28" cy="28" r="26.5"/>
    </g>
    <g id="グループ化_7189" data-name="グループ化 7189" transform="translate(4296 314)">
      <path id="パス_2103" data-name="パス 2103" class="cls-2" d="M21.087,17.216h3.652a4.2,4.2,0,1,0,0-8.409,4.38,4.38,0,0,0-1.278.18,3.132,3.132,0,0,0,.061-.781A4.207,4.207,0,0,0,19.261,4a4.337,4.337,0,0,0-2.8,1.021A6,6,0,0,0,10.739,1,6.065,6.065,0,0,0,4.652,7.006a5.594,5.594,0,0,0,.3,1.8,4.208,4.208,0,0,0,.3,8.409H8.913" transform="translate(0 0)"/>
      <path id="パス_2104" data-name="パス 2104" class="cls-2" d="M7.5,14h.3a4.015,4.015,0,0,1,2.215.659" transform="translate(-2.608 -5.2)"/>
      <path id="パス_2105" data-name="パス 2105" class="cls-2" d="M26.4,7.7a5.126,5.126,0,0,1,.3,1.377" transform="translate(-9.936 -2.679)"/>
      <path id="パス_2106" data-name="パス 2106" class="cls-2" d="M37.539,14.3A5.492,5.492,0,0,1,37,15.677" transform="translate(-14.08 -5.319)"/>
      <path id="パス_2107" data-name="パス 2107" class="cls-3" d="M20.73,22.927,23.784,17l-4.969,1.377L16,25.562l2.814-.479L16.958,31.37l8.023-8.921Z" transform="translate(-5.797 -6.37)"/>
    </g>
    <g id="グループ化_8722" data-name="グループ化 8722" transform="translate(-1 109)">
      <rect id="長方形_5183" data-name="長方形 5183" class="cls-4" width="26" height="11" rx="5.5" transform="translate(4314 224)"/>
      <path id="パス_2465" data-name="パス 2465" class="cls-5" d="M-5.221-.248A7.694,7.694,0,0,1-7.83.159,5.309,5.309,0,0,1-10.337-.4a3.8,3.8,0,0,1-1.609-1.581A4.886,4.886,0,0,1-12.5-4.342a5.205,5.205,0,0,1,.622-2.564,4.3,4.3,0,0,1,1.758-1.736,5.425,5.425,0,0,1,2.615-.613,9.09,9.09,0,0,1,2.285.286v2.533a3.225,3.225,0,0,0-.908-.355A4.537,4.537,0,0,0-7.2-6.919a2.387,2.387,0,0,0-1.761.641A2.344,2.344,0,0,0-9.6-4.539a2.3,2.3,0,0,0,.644,1.723,2.355,2.355,0,0,0,1.723.632,4.471,4.471,0,0,0,2.012-.508ZM2.555,0-.657-4.393a10.469,10.469,0,0,1-.622-.939H-1.3q.038.673.038,1.511V0H-3.805V-9.1h2.59L1.863-4.926q.057.083.14.2t.165.235q.083.121.156.235a1.445,1.445,0,0,1,.111.2H2.46a8.25,8.25,0,0,1-.038-.965V-9.1H4.961V0Zm4.2,0V-9.1H9.493v6.957h3.136V0Z" transform="translate(4327 234)"/>
    </g>
  </g>
</svg>
